<svg viewBox="0 0 479 41" xmlns="http://www.w3.org/2000/svg" fill-rule="evenodd" clip-rule="evenodd" stroke-linejoin="round" stroke-miterlimit="1.414"><g fill-rule="nonzero"><path d="M169.799 26.6c0 .24 1.96 1.04 2.24 1.04h.16c.36 0 1.2-.08 1.2-.24l-.04-.04c.48 0 .92.2 1.36.2 0 0 .96-.32 1.4-.32l.4.12c.52 0 5.56-1.84 5.68-2.36 1.08-.52 1.32-.68 2.12-1.32.28-.28.64-.12.92-.28.8-.4 2.52-2.92 2.76-2.92v.04c.8-1.08 1.36-2.16 2.64-3.04.28-.28.8-2.92.8-3.04h.4l-.12.28.4.12c.16-.2.12-.28.52-.28 0 .32-.12.08-.12.4.52.92 1.68.68 1.68 1.32 0 .24-.68 2.68-.76 2.68-.04 0-.08-.04-.16-.16-.24 0-.12.8-.24.92-.16.44-.72.96-.72 1.24 0 0 .12.24.2.36 0 .64-.56 1.32-.56 1.96 0 2.84 1.92 3.68 2.48 3.68.16 0 .6.04 1.12.04 2.12 0 2.84-1.2 3.48-1.2.12 0 .2.04.32.12 1.08-.28 2.44-2.44 2.44-2.8 0-.32-.84-.36-.84-.36-.88 0-1.44.96-2.04.96-.04 0-.12 0-.2-.04-1.48.4-2.12 1.04-3.72 1.04v-.4h-.24c0-.92.24-1.84.64-2.64.12-.36.8-.92.8-1.32 0-.36-.24-.24-.4-.52.16-.16.28-.44.28-.52l-.16-.12.28-.28c0-.28.04-.72.04-1.12 0-.76-.08-1.52-.44-1.52 0-1.44.12-.8 1.2-1.32.4-.24.64-.52 1.04-.8.68-.4.92 0 1.2-.52.24-.4.92-.4 1.32-.8.68-.68 1.16-1.84 1.44-2.64l-.12-.24c0-.68.4-1.32.4-2 0-1.12-.92-2.8-.92-3.96 0-.64 2.08-.8 2.08-2.24 0-.4-.64-.64-1.04-.64-.64 0-1.44.76-2.12 1.04l-.12-.12c-.2.08-.2.12-.52.12-.28 0-3.04-1.2-3.44-1.44-.12-.16-.52-.28-.52-.28-.28.12-.12.12-.92.12l-.16-.12-.24.12-.28-.24c-.16 0-.44.28-.68.28-.8 0-1.52-.4-2.2-.4-.44 0-.84.12-1.48.12-.16 0-.32 0-.52-.12l-.4.12-.4-.12c-1.32 0-2.48 1.04-3.8 1.04-.16 0-.16-.12-.4-.12-.04.8-1.24.28-2.12.92-.52.24-1.08.88-1.6 1.16-1.72.92-2.64 1.6-3.96 2.92-2.72 2.72-2 1.88-2.88 3.04-.56.92-.92 1.72-1.2 2.76-.44.16-.72 1.8-.72 1.92 0 .12.32.12.44.2.16.28 0 .8.56 1.44.12.16.92.92 1.04 1.08.12 1.24.72 1.16 2.12 1.16l.24-.12c.72 0 1.6.4 2.24.4.2-.2 1-.64 1.72-.64.52-.24.44-1.12 1.08-1.12.08 0 .16 0 .24.04l.68-.64c1.04 0 4.8-2.92 5.52-3.84.56-.52.68-1.64 1.48-2 .64-.28 2.24-4.68 2.48-4.72-.12-.56-.24-1.32-.92-1.32-1.04 0-1.16 1.56-1.32 2.24-.12.4-.64.52-.64.52-.4.4-.4 1.32-.8 1.72-.28.4-.64.52-.92.8-.12.12-.52.52-.68.64-.36.4-1.28.4-1.68.8-.64.64-1.52 1.2-2.28 2.24-.36-.24-2.64 1.72-2.72 1.72-1.2 0-2.24.8-3.48.92 0-.08-.36-.28-.92-.28-.12 0-.52.28-.64.28v-.52c-.16-.12-.92-.68-1.08-.8l-.12-.12c.28-.16.28-.28.28-.4 0-.28-.16-.28-.4-.28.4-.64.8-1.84 1.04-2.36.4-.8 1.08-1.44 1.6-2.12.56-.72 1.56-1.08 1.84-1.96.04 0 .04.04.08.04.32 0 1.12-1.12 1.52-1.12l.12.12c.4 0 .8-.52 1.04-.64.28-.2 1.64-.08 1.64-.84 0-.08 0-.12-.04-.2 0 0 1.96-.28 2.24-.4.28 0 .12-.56.52-.56l.12.16c.24-.2.6-.2.68-.28.12 0 .12.28.12.28 0-.48 1.56-.92 2.52-.92l-.28-.16c.4-.12.8-.12 1.2-.12.68 0 .8.28 1.2.28.4 0 1.04-.4 1.44-.56v.16c.16 0 .2-.16.4-.16v.04c0 .12 1.16.24 1.6.24h.24v.28c.04 0 .04.04.08.04.08 0 .12-.24.2-.32.52 0 .4.52 1.04.52.12-.08.28-.12.4-.12.36.12.44.48.84.48.12 0 .24-.04.36-.08.4 0 .52.64.92.64 0 .56-.68 1.08-1.2 1.32-1.28.64-.64 1.6-2.12 1.6l-1.96 1.96c-.12 0-1.84 1.6-1.84 1.72 0 1.08-1.32 1.12-1.32 2.4-1.16.92-1.12 1.16-1.88 2.12-.84 1.08-1.44 1.4-1.44 2.88-1.52.36-1.68 2.88-3.04 3.16 0 .04.04.04.04.08 0 .56-1.56 1.44-1.6 1.4-.08-.08-.24-.2-.32-.2-.04 0-.04 0-.08.04v.28c-.32 0-1.6 1.32-1.84 1.44-.56.28-1.32.52-1.72 1.08l-.16-.16c-.64 0-1.16.68-1.72.8-.44.08-1.96.12-1.96.44 0 .08 0 .16-.12.24 0-.16-.28-.4-.4-.4-.12.08-.28.12-.4.12s-.68-.64-.92-.64c-.16 0-.52.24-.68.24h-.12c.4-.4 0-1.2.4-1.56.24-.28.8-.4.8-.96 0-1.64-1.04-1.88-1.2-2.64-.2.16-.56.2-.68.28-1.56.28-1.44.68-2.08 2-.16.24-.28.36-.28.64 0 .4.28.52.4.92.4 1.08.52 1.32 1.44 2.12-.08.12-.12 0-.12.28zm.64-2c.24-.16.36-.12.56-.12l-.16.4c-.12 0-.28-.16-.4-.28zm.8-.64c.08 0 .12.04.12.12 0 .04-.04.12-.12.12-.04 0-.08-.08-.08-.12 0-.08.04-.12.08-.12zm14.12-.96c0 .08-.04.12-.04.12-.04 0-.08-.04-.08-.12 0-.08.04-.08.08-.08 0 0 .04 0 .04.08zm7.16-10.16c0-.12.64 0 .64-.64l-.12-.12c.4-.68.64-.8 1.16-1.32.72-.72.64-2 1.88-2.52l.12-.4c0-.28 1.32-1.72 1.44-1.72l1.48-1.44h.36v.64h.28c0 .28.28.8.4.92 0 .16 0 1.6-.4 1.72.12 0 .28.16.28.28 0 .24-1.48 2.36-1.72 2.64-.6.8-1.68 1.04-2 2.24 0 .12-1.72.92-1.84.92-.12 0-1.96-.8-1.96-1.2zm-.16.8c0-.12.16-.12.28-.12v.24c-.12 0-.28 0-.28-.12zm-.12-.4c.08 0 .08.04.08.08s0 .08-.08.08c-.04 0-.08-.04-.08-.08s.04-.08.08-.08zm-10.44-8.84c0 .04-.04.08-.04.08-.04 0-.08-.04-.08-.08 0-.08.04-.08.08-.08 0 0 .04 0 .04.08zm18.36-1.96c0 .04-.04.08-.04.08-.04 0-.08-.04-.08-.08 0-.08.04-.12.08-.12 0 0 .04.04.04.12zm-4.36-.28c.08 0 .08.08.08.12 0 .08 0 .16-.08.16-.04 0-.08-.08-.08-.16 0-.04.04-.12.08-.12z"/><path d="M196.999 40.56h.28v-.16l-.28.16zm5.56-14.68c.12.4 1.2.4 1.56.4.68 0 5.48-2.76 5.48-3.56 0-.12-.36-.2-.48-.2-.4 0-3.16 1.24-3.16 1.8-.12 0-1.28.52-1.44.52-.24 0-.4-.4-.4-.68 0-.48 1.44-2.12 2-2.76.4-.44 1.96-2.48 1.96-3.04 0-.52-.64-.8-1.16-.8-1.52 0-1.88 1.72-3.04 2.4-.44.88-3 1.72-3 3.16 0 .12.2.24.32.24.4-.12 1.36-.88 1.6-1.16l.28.28c0 .68-.92.92-.92 1.96 0 .28.28 1.2.4 1.44zm7.64-14.24c0 .6.64 1.84 1.4 1.84.64 0 1.64-1.2 1.64-1.84 0-1.04-1.04-1.32-1.84-1.32-.68 0-1.2.8-1.2 1.32z"/><path d="M210.439 21.84c-.8.2-1.56.72-1.56 1.08 0 .28.32.44 1.16.48v.08c.04.04.04.04.04.08l.4 1.44c.12.64 1.72 1.32 2.36 1.32 2.12 0 5.56-1.72 6.6-3.32-.24-.52-1.32-.24-1.32-.52V20c0-.8-.8-1.6-.8-2.52 0-.68 2.52-.4 2.52-2.24 0-.68-.8-1.08-1.44-1.08-.08.08-.44.16-.68.28l-2.36 2.24c-.4 1.04-3.84 4.08-3.72 4.08l-1.2 1.08zm2.16 2.48c.12-.24.36-.64.36-1.04 0-.52-1.04-.64-1.04-1.32 0-.8 2.92-2.76 3.56-3.04 0 .4.04 2.92-.64 4.08-.4.68-1.32.96-1.88 1.6-.12 0-.24-.12-.36-.28z"/><path d="M220.719 25.04c.44.56 1.2 1.32 2 1.32 1.88 0 6.52-2.32 6.52-3.48 0-.2-.08-.32-.36-.32-.32 0-1.4.36-2.08 1.2-.12-.08-.28-.16-.4-.16-.12.16-1.04.8-1.44.8l-.28-.16c-.12.16-.64.4-.8.56-.64 0-1.32-.16-1.32-.8 0-2 3.72-1.08 3.72-2.52 0-.36-.28-.28-.52-.28-.68 0-1.2.28-1.72.28-.08-.12-.16 0-.16-.28 0-.36 2.24-2.36 2.8-2.36.24 0 .4 0 .64.12-.12 0-.12.16-.12.28h.12c0 .64-.4.92-.4 1.6 1.2 0 1.32-.84 1.72-1.88 0-.2-.28-.24-.28-.48 0-.04 0-.08.04-.16-.56-.8-1.2-1.08-2.12-1.08-.16 0-.52.28-.68.4-1.16.44-1.88.4-2.76 1.72-.08-.04-.16-.04-.24-.04-.92 0-1.04 1.36-2.4 1.36 0 .4-1.56 1.8-1.84 2.08.16.24.28.52.68.52.12 0 1.04-.6 1.16-.76.12.12.56 1.88.56 2.4 0 .04-.04.08-.04.12zm24.6-1.32c0 1.44.92 3.44 2.52 3.44l.36-.12.56.12c.12-.08 1.88-.52 1.88-.56.04 0 .04 0 .08.04.28-.4.68-.8 1.2-.8v-.12l.8-.16c0-.24.52-.64.76-.64l.28.12c.8-1.16 2.48-1.68 3.16-2.88.16-.16 1.72-1.32 1.84-1.32.36 0 .6.04.6.48 0 .4-.6 2.04-.6 2.4 0 2.12 1.72 3.16 3.72 3.16.4 0 3.44-1.44 3.56-1.44l-.12-.12c1.32-.16 2.24-1.48 2.24-2.92 0-.24-.16-.24-.4-.24-.12 0-1.76.64-2.24 1.32-.68.36-1.6.64-2.4.76-.12.28-.52.28-.76.28-.16 0-.28 0-.4-.12h-1.48c0-1.08.16-1.32 1.08-1.88 0 0 .2-.28.32-.28.04 0 .08 0 .08.04.32-.76.76-1.52 1.44-2.12.4-.36 1.24-.12 1.2-.84 0-.16-.16-.32-.16-.48 0-.12.8-.28.8-.28.48-.28 1.12-.92 1.12-1.32 0-.16-.04-.32-.04-.36 0-.28 1.04-1.32 1.04-1.32 0-.16-.28-.48-.28-.8.4 0 .8-.16 1.08-.4.52-.52 3.44-3.44 3.44-3.84l2.08-2.12s1.48-1.16 1.6-1.32c.52-.64 2.12-3.16 2.92-3.28 0-1.48 0-1.28-.8-2.12v-.12h-2c-.52 0-1.32 1.32-1.56 1.72-.28.4-2 1.84-2.4 1.84l-.4.92c-.4 0-1.44 2.12-2.24 2.24-.4.4-1.32 1.32-1.32 1.44h-.12V9.6h-.12c-.12.2-1.08.92-1.08 1.32-1.48 1.48-4.44 4.48-5 5-.92.88-.76.32-1.32 1.88-.12.12-1.32 1.04-1.44 1.16-.28.28-1.88 1.32-1.88 1.72-.72.16-1.24.56-1.56 1.32l-.52-.12c-.64.12-1.04 1.24-1.84 1.24-.12 0-.12-.04-.2-.04-.28 0-.64.92-1.16.92-.12 0-.4-.16-.4-.28-.36.28-1.64.92-2 .92 0 0-.24-.04-.36-.12l-.28.28c-.32 0-.24-.48-.24-.56-.12.28-.28.28-.52.28-.28 0-.56-.12-.56-.4 0-.92.96-1.2 1.32-1.72l-.12-.12 1.08-1.08h.36l.96-.92c.72 0 2.84-1.48 3.16-2.36.24-.68.24-1.32.64-2 .28-.24.92-.12 1.32-.64.28-.28.68-1.2.92-1.32.96-.28 1.4-1.32 2.24-2v-.92c.16-.12 1.6-2.48 1.6-2.76.08-1.2.52-2.2.52-3.56-.64-.68-.8-1.32-.8-2.24l.16-.28c-.4 0-.52-.24-.92-.52-.96-.68-2.64-.56-2.64-1.6-.32 0-.92.16-.92.16-.2 0-.32-.16-.72-.16-1.12 0-2.96.04-3.4.68-.64.32-4.12.6-4.88 2.12-1.72.76-3.4 1.6-4.48 3.04-.8.76-1.44 1.04-2.12 2.08-.12.28-.52.28-.64.56-.28.4 0 .52-.4.76-.84.64-1.2 2.88-1.2 4.24 0 1.32.88 1.44 1.04 2.64.28.4 1.08.52 1.48.68.24.12.12.64.4.76.12-.12.24-.24.24-.4 0 .4.68.56.92.56.96 0 0-1.16 1.28-1.16.12 0 .28 0 .32-.04.92-.52 1.2-.8 2.36-1.04.44-.16 2.72-2.04 2.92-1.88.4-.4.8-1.04 1.2-1.32.36 0 1.12-.52 1.12-.72 0 0-.04-.04-.08-.04.28-.56.84-.8.92-1.32.16-.8 1.44-2 1.6-2.64l-.16-.56c.04 0 .8-.84.8-1.84 0-.52-.24-1.2-.8-1.2-.72 0-.64.8-.92 1.32-.32.6-.76.88-.76 1.6l-.68.8c0 .12-1.44 2.12-1.72 2.52-.24.36-1.44 1.04-1.84 1.44-.56.56-1.12.76-2 1.04-.08.28-.16.56-.44.56-.08 0-.12 0-.2-.04-.4.16.12.28-.8.56-.4.12-2.36.92-2.52.92-.04 0-.56-.12-.76-.16-.28 0-.28.16-.4.16-.28 0-.8-.16-.8-.4v-2l.12-.12c0-1.48 1.4-3.12 2.4-4.36.44-.52 1.16-.64 1.44-1.32.12-.24 1.6-1.32 1.96-1.56 1.72-1.08 3.56-1.68 5.56-2.28l-.28-.12c.8-.24 1.68-.12 2.4-.4l-.12-.12.24-.12c.36 0 .8.24 1.08.24.12-.16.76-.12 1.04-.12 2 0 3.28 1.56 3.28 2.92 0 1.16-.44 3.28-1.68 3.56-.56.4-.8.92-1.2 1.32-1.24 1.2-1.8 1.2-3.16 3.04-.88 0-1.4 1.24-2 1.68-1.04.72-2.24 1.28-2.24 2.92-1.72 1.44-3.16 3.96-3.16 6.2zm9.12 0c.08 0 .08.08.08.12 0 .08 0 .16-.08.16s-.12-.08-.12-.16c0-.04.04-.12.12-.12zm7.76-2.24c0 .04-.04.08-.04.08-.04 0-.08-.04-.08-.08 0-.08.04-.08.08-.08 0 0 .04 0 .04.08zm-2.64-1.6h.16l-.28.28h-.12c0-.28.12-.28.24-.28zm4.48-.76c.08 0 .12.04.12.12 0 .04-.04.12-.12.12-.04 0-.08-.08-.08-.12 0-.08.04-.12.08-.12zM242.159 17c.08.04.08.16.08.24 0 .12-.04.28-.12.28-.04 0-.08-.12-.08-.28 0-.2.08-.28.12-.24zm-.8 0h.12v.4c-.04-.16-.12-.32-.12-.36V17zm20.84-.4c0 .12 0 .12-.12.12 0 0-.04 0-.04-.04s.12-.12.16-.12v.04zm.28-.52c0-.16.08-.16.2-.16h.2l-.16.28c-.2 0-.16-.04-.24-.12zm7.52-3.96c0 .04-.04.08-.04.08-.04 0-.08-.04-.08-.08 0-.08.04-.12.08-.12 0 0 .04.04.04.12zm-17.16-10.16h.12l-.12.12v-.12z"/><path d="M259.479 36.52c0 1.04.4 1.32 1.44 1.32 1.16 0 1.52-1.32 2.12-2 2.44-2.76 4.24-5.44 7.4-8.84.12-.24 2.24-2.88 2.52-3.04.4-.36 2.48-2.36 2.88-2.76.8-.8 3.32-2.64 4.24-2.64.24 0 .52 0 .52.28v.12c-1.08 1.92-3.04 2.68-3.04 4.48 0 1.2.68 2.24 2 2.24 2.08 0 3.68-1.84 5.28-3.04.04-.04.04-.04.04-.08 0-.2-.4-.32-.84-.32l-3.16 1.72c-.28.4-1.08.56-1.48.56 0-1.2 3.72-3.16 3.72-5.16 0-1.2-1.08-2.36-2.4-2.36-.92 0-1.44 1.04-2.36 1.04 0-1.6 3.68-4.64 4.76-6.2 0-.08.04-.16.04-.24 0-.84-.92-.84-1.52-.84-2.28 0-3.24 3.04-5.12 4.92-.36.36-2.52 2.08-3.04 2.36-.68.4-1.44.64-2 1.2-.4.24-2.8 2.52-3.2 2.8-.52.4-1.2.52-1.2 1.32 0 .12 0 .24.28.24.4 0 3.56-2.4 4.12-2.4.16 0 .28 0 .28.12 0 .8-2 2.4-2.24 3.04 0 .04.04.04.04.08 0 .44-.96.96-1.24 1.24-2.04 1.76-3.04 4.04-4.36 5.28-.48.44-1.32.52-1.32 1.32-.4.28-.8.68-.92 1.2-.64.68-2.24 1.84-2.24 3.04zm13.2-16.24c0 .28-.52.4-.64.52v-.08c0-.32.36-.44.64-.44zm4.36-1.32c.08 0 .08.08.08.12 0 .08 0 .16-.08.16-.04 0-.08-.08-.08-.16 0-.04.04-.12.08-.12zm16.08 6.96c0 1.32 1.84 1.72 2.92 2.12h3.04c.76-.52 1.96-.36 2.88-.68 1.04-.32 2.72-.48 3.84-1.04.56-.24.28-.4 1.04-.4 1 0 3.6 1.48 3.76 1.48l-.04-.04h3.04c.52-.24.64-.08 1.16-.24 1.68-.44 5.16-2.4 5.16-3.84 0-.4-.12-.4-.52-.4-1.2 0-1.6.92-2.52 1.48-.8.52-3.96 1.16-4.88 1.16-.68 0-1.04-.12-1.84-.24-.16-.16-.28-.28-.4-.28-.4 0-.52.28-.68.52l-1.04-.4V25c0-.68 1.04-.8 1.44-.8.92-2.12 3.24-2.92 4.64-4.6.68-.8.92-1.72 1.72-2.52-.04-.04-.04-.08-.04-.16 0-.72 1.2-1.28 1.2-1.76 0-.32.96-.72 1.72-.72.84-.36 1.96-1.92 2.92-1.92.2 0 .28.08.44.08.52 0 1.28-1.08 1.8-1.32 1.52-.48 1.76-1.88 2.92-2.64.68 0 1.04-.88 1.04-1.2.32-.6 1.8-1.32 1.8-2.36 0-.12-.04-.28-.08-.4 0-.36.52-.44.52-1.44 0-1.12-.28-2.2-1.2-2.64h-1.44c-.28.64-2.64 1.56-3.16 1.84-.52.24-.68.64-1.08.92-.52.4-1.32.8-1.84 1.2-1.72 1.24-3 2.72-4.76 4.08-.36.4-.64 1.32-.92 1.56-1.16 1.2-1.72 1.6-2.36 3.2-.92 0-.92 2.36-1.6 2.76-1.04 0-2.48.28-3.56.52-.12.28-.4.28-.64.28-.4 0-.92-.28-1.96-.28-3.04 0-4.8-1.28-4.8-5.16.56-.76.96-1.68 1.08-2.64 1.52-1.64 3.6-2.6 5.52-3.8 1.04-.36 1.96-.08 2.8-.68.6 0 3.68-.36 3.68-.92 0-.4-.4-1.2-.8-1.2-.68 0-1.64.2-2.16.2-.28 0-.72-.2-1-.2-1.84 0-7.52 2.8-8.72 4.12-1.44 1.56-3.04 2.64-3.04 5 0 2 .96 4.88 2.92 5.8.12 0 1.2.4 1.32.4.96.28 1.92.68 3.04.68 1.52 0 4.76-.52 4.76-.56h-.04c.24 0 .56.04.84.04 0 1.04-4.88 4.88-5.56 5.52l-.12.28c-.36 0-.48-.12-1.32-.52-.16 0-.68-.28-.8-.28-.16 0-.56.12-.92.12-.72-.28-1.76-.24-2.8-.24-.24 0-.72-.32-.88-.32-1.52 0-3.08.72-4.12 1.76-.4.4-1.32 1.04-1.32 1.84zm1.84-.24v-.16l.8-.8c.32-.32 1.36-.4 2.44-.4.72 0 1.44.04 2.04.04.28-.16.4-.16.8-.16.28 0 2.12 0 2.12.52 0 .32-.56.56-1.2.56-1.2.24-1.96.92-3.44.92-.24 0-.52-.28-.76-.28-.68 0-1.48.28-2.12.28-.4 0-.68-.16-.68-.52zm22.72-13.2c.64-.68.12-.4.64-1.32 0-.16.56-.56.56-.68.92-1.32.76-2.36 2.64-3.04v-.52c.48-.48 1.84-2.2 3.16-2.52l-.28-.24c.12-.28 3.32-1.88 3.44-1.88.12 0 .28 0 .28.28 0 .12-.16.28-.16.52.24.28.28.64.28.72 0 .96-.68 1.44-.92 2.2l-1.6 1.56c-.64.28-1.44 1.08-1.84 1.32-.52.36-1.6.92-1.6 1.2-.4.52-1.04 1.08-1.72 1.44-.24.16-2.36 1.2-2.48 1.2-.28 0-.4 0-.4-.24z"/><path d="M316.079 40.56h.28v-.16l-.28.16zm5.56-14.68c.12.4 1.2.4 1.56.4.68 0 5.48-2.76 5.48-3.56 0-.12-.36-.2-.48-.2-.4 0-3.16 1.24-3.16 1.8-.12 0-1.28.52-1.44.52-.24 0-.4-.4-.4-.68 0-.48 1.44-2.12 2-2.76.4-.44 1.96-2.48 1.96-3.04 0-.52-.64-.8-1.16-.8-1.52 0-1.88 1.72-3.04 2.4-.44.88-3 1.72-3 3.16 0 .12.2.24.32.24.4-.12 1.36-.88 1.6-1.16l.28.28c0 .68-.92.92-.92 1.96 0 .28.28 1.2.4 1.44zm7.64-14.24c0 .6.64 1.84 1.4 1.84.64 0 1.64-1.2 1.64-1.84 0-1.04-1.04-1.32-1.84-1.32-.68 0-1.2.8-1.2 1.32z"/><path d="M328.879 25.44c0 .28.28.68.52.68h1.72c1.2-1.08 1.56-2.08 2.52-2.92.12-.12 1.04-.76 1.2-.92.12-.92 1.44-.12 1.96-1.04l.12.12c.04.12.04.2.04.32 0 .96-.8 1.36-.8 2.6 0 1.72 1.16 1.84 2.76 1.84.64 0 4.68-2.56 4.84-3.2 0-.36-.16-.4-.36-.4-.92 0-3.48 2-4.6 2-.16 0-.16-.12-.16-.24 0-.28.28-.4.4-.68.28-.8.4-1.16.4-1.84 0-.64-.52-1.44-1.04-1.84 1-.56 1.4-.48 2.36-1.08.4.4 1.04 1.2 1.72 1.2l1.04-.8c0-.28.04-.52.04-.76 0-1.4-1.4-1.24-1.88-1.32l-.52.52h-1.6c-.4.4-1.96 1.72-2.36 1.84-.04-.04-.12-.04-.16-.04-.24 0-.16.56-.52.56h-.52c.4-1.04 1.6-.8 1.84-2.24.76-.36.92-1.52 1.88-1.72.52-.48.6-.96.92-1.44.24-.28.52-.28.64-.52.52-.68.92-1.32 1.48-2 .64-.76 1.56-1.04 1.96-2.36.4-.52 1.6-1.48 1.6-2.4 0-.36-.4-.4-.72-.4-2.28 0-3.24 1.4-4.44 2.92-.12.32-.56.44-.56.8 0 .08 0 .16.04.24-.44.64-1.44 1.84-2.4 2.8-.4.12-2.08 2.24-2.36 2.76-.08.4-.8.72-1.32 1.04-.28.16-.28.56-.52.68-1.08.8-1.6 1.44-2.64 2.24-.64.48-3.44 1.6-3.44 2.36 0-.04-.08.72.4.72.56-.24 2.88-1.68 2.88-1.84 0-.08-.04-.16-.04-.24 0-.08.4-.24.6-.32.32-.24.08-.4.52-.4.12 0 .12.4.12.52-.2.8-3.56 2.12-3.56 4.2zm3.68-5.12h.16v.12h-.16v-.12zm.96-1.08c.08.08.12.12.12.28-.12.36-.48.52-.8.52.28-.24.4-.64.68-.8zm6.2-3.68h.24l-.24.12v-.12z"/><path d="M345.279 25.04c.44.56 1.2 1.32 2 1.32 1.88 0 6.52-2.32 6.52-3.48 0-.2-.08-.32-.36-.32-.32 0-1.4.36-2.08 1.2-.12-.08-.28-.16-.4-.16-.12.16-1.04.8-1.44.8l-.28-.16c-.12.16-.64.4-.8.56-.64 0-1.32-.16-1.32-.8 0-2 3.72-1.08 3.72-2.52 0-.36-.28-.28-.52-.28-.68 0-1.2.28-1.72.28-.08-.12-.16 0-.16-.28 0-.36 2.24-2.36 2.8-2.36.24 0 .4 0 .64.12-.12 0-.12.16-.12.28h.12c0 .64-.4.92-.4 1.6 1.2 0 1.32-.84 1.72-1.88 0-.2-.28-.24-.28-.48 0-.04 0-.08.04-.16-.56-.8-1.2-1.08-2.12-1.08-.16 0-.52.28-.68.4-1.16.44-1.88.4-2.76 1.72-.08-.04-.16-.04-.24-.04-.92 0-1.04 1.36-2.4 1.36 0 .4-1.56 1.8-1.84 2.08.16.24.28.52.68.52.12 0 1.04-.6 1.16-.76.12.12.56 1.88.56 2.4 0 .04-.04.08-.04.12zm16.24-1.8c.12 0 .16.2.16.4s-.04.4-.04.52c0 .16.68.56.68.68.24.4.52 1.04.92 1.32.12.12 1.2.52 1.32.64.52.28.92.68 1.6.68.24 0 .64-.12.92-.12.12 0 .4 0 .4.12.24-.12 1.32-.4 1.56-.4.16 0 .4 0 .68.12.76-.12 1.84-.76 2.76-.92.84-.12 4-1.84 4.48-1.84.2-1.12 1.92-1.6 2.4-1.6.12 0 2.48 2 2.88 2.12.6.44 2.16.52 2.4.92v.28c.44.56 1.2.8 1.84.8.64 0 1.32-.16 2.12-.16v-.12h-.16c.4-.52 2.8-1.44 3.44-1.72 1-.44 2.36-.84 2.36-1.84 0-.28-.36-.28-.64-.28-1.24 0-2 1.64-2.84 1.64-.2 0-.32-.16-.72-.56 0-.4 1.2-1.72 1.56-2-.16-.12-.24-.28-.24-.36 0-.6.96-.84 1.2-1.2-.08-.12-.16-.12-.16-.28.28-.4 1.08-.92 1.2-1.44l-.12-.28.24-.12c.28-.28 1.32-1.04 1.32-1.2-.08-.16-.12-.2-.12-.4.6-.84 2.36-3.08 2.6-3.08.04 0 .04 0 .04.04 0-1.44.36-1 .64-1.56.28-.4.4-.8.68-1.2.52-.52.88-.64 1.32-1.32.36-.52.56-1.32 1.04-1.72.8-.64 1.48-1.56 2.12-2.48 1.08-.56 1.84-2.64 3.04-2.64 0-.16-.12-.28-.12-.4 0-.28.12-.4.12-.68 0-.4-1.04-.52-1.32-.52-.4 0-2.68 1.96-3.56 1.96h-.12c-.92.96-1.32.96-2.4 1.32-1.16.56-2.48 1.6-3.44 2.52-1.76 0-4.32 3.32-4.32 3.32-.48.44-1.36.4-1.48 1.16-1.08.52-1.04 1.32-2.12 1.32-.6-.32.24-1.4-.92-1.44-.52-.4-1.16-1.84-2.08-1.84h-2.28c0 .12-.24.12-.36.12-.28 0-.28-.4-.68-.4-.48 0-2.76 1.16-2.76 1.72l-1.2 1.2c.04.08.08.16.08.2 0 .36-.6.48-.6.84-.12.92-.28 1.72-.4 2.64 0 .28-.4.68-.4.92 0 .56.52 1.08.52 1.6l-.12.12c0 .92 1.32 1.84 1.32 3.16 0 .96-1.4 1.68-1.92 1.68-.12 0-.16-.04-.2-.08-1.64 1.2-2 1.44-2.88 1.44-.16 0-.68.4-.8.4-.8.32-2 .4-2.64.4-.16 0-.52.28-.68.28-.72 0-2.12-.04-2.12.12-.64 0-.92-.92-1.32-.92-.12 0 0 .28-.24.28-.12 0-.8-.28-.8-.4 0-1.2 2.76-.56 2.76-1.88 0-1.16-.12-1.68-.92-2.64-.12-.12-.92-.36-1.16-.52-1.48 0-3.32 2.24-3.32 3.56zm28.12 2.4c0 .24-.12.24-.4.24 0-.24.12-.24.4-.24zm-25.76-1.6v.28h-.12l.12-.28zm17.72-1.2l-.28.28c-.28 0-.8-.52-.8-.8 0-1.44.8-1.44 1.72-1.96.28-.16.28-.52.52-.68.44-.2 1.16-.32 1.32-.92 0 .12.28.12.4.12 0 0 .28 0 .28-.12l-.4-.12v-.12l1.32-1.32c0-.36 1.4-1.72 1.84-1.72.4 0 .52.92.52 1.16v.16c0 .24-.12 1.32-.12 1.56-.12 0-.52 1.08-.52 1.2.12.32.12.52.12.92 0 .76-.6.76-.8 1.72-1 .68-.44 2.12-2.24 2.12-.64-.8-2.04-1-2.88-1.48zm-17.96 1.08h.12l-.12.12v-.12zm14.92-1.2c.08 0 .08.08.08.12 0 .08 0 .16-.08.16s-.12-.08-.12-.16c0-.04.04-.12.12-.12zm.92-2.12v.16h-.12l.12-.16zm-1.2-1.16c0-.52 0-1.08-.12-1.2 0-1.12.24-2.52.8-2.76-.16 0-.28-.16-.28-.28h.28c0-.76.64-.68.64-1.6.4-1.32 1.84-2.36 3.32-2.36 0 .12 0 .28.24.28l.16-.16c2 0 2.88.64 3.56 2.64-.6 1.16-.04 1.2-.92 1.2-1.08.12-1.88 1.6-2.4 2.36 0-.12-.12-.12-.24-.12-.16.36-.4.48-.8.52-.4.28-.8 1.08-1.2 1.32-.64.28-.52 1.08-1.44 1.08l-.28-.16c-.12 0-.4.16-.52.16-.12-.52-.28-.8-.8-.92zm10.44-3.84c0-1.28.8-1.8 1.2-2.76.12-.28.52-.16.64-.28.4-.4.12-.68.8-1.2.6-.44 1.48-.92 2.12-1.16.6-.24.36-.88 1.04-1.08.92-.4 1.6-1.56 2.36-1.84.2.08.4.12.56.12.64 0 .4-.64.92-1.04l.12.12c.28-.4 2.92-1.96 3.32-1.96 0 .2.04.32.12.52-.28.52-1.2.64-1.6.92-.52.28-.52.68-.8 1.04-.12.28-2.08 1.96-2.08 2.36v.04c-.8.92-1.72 1.56-2.52 2.52-.4.48-.36 1.16-.68 1.84-.52 1.16-1.92 1.76-2.48 3.04l-.4-.16c.04.08.04.16.04.24 0 .92-1.12 1.24-1.24 1.48 0 .04.04.16.04.24 0 .16-.04.28-.28.28-1.08 0-1.2-1.28-1.2-2.36v-.92zm6.48-1.6c.08 0 .08.08.08.12 0 .08 0 .16-.08.16s-.12-.08-.12-.16c0-.04.04-.12.12-.12zm2.36-6.84c0 .04-.04.08-.04.08-.04 0-.08-.04-.08-.08 0-.08.04-.12.08-.12 0 0 .04.04.04.12zm-.4-.16c0 .08-.04.12-.04.12-.04 0-.08-.04-.08-.12 0-.08.04-.08.08-.08 0 0 .04 0 .04.08zm5.28-3c0 .04-.04.08-.04.08-.04 0-.08-.04-.08-.08 0-.08.04-.12.08-.12 0 0 .04.04.04.12zm.4-.4c0 .12 0 .12-.12.12-.04 0-.04 0-.04-.04s.08-.12.12-.12c.04 0 .04 0 .04.04zm1.36 23c0 .24 1.96 1.04 2.24 1.04h.16c.36 0 1.2-.08 1.2-.24l-.04-.04c.48 0 .92.2 1.36.2 0 0 .96-.32 1.4-.32l.4.12c.52 0 5.56-1.84 5.68-2.36 1.08-.52 1.32-.68 2.12-1.32.28-.28.64-.12.92-.28.8-.4 2.52-2.92 2.76-2.92v.04c.8-1.08 1.36-2.16 2.64-3.04.28-.28.8-2.92.8-3.04h.4l-.12.28.4.12c.16-.2.12-.28.52-.28 0 .32-.12.08-.12.4.52.92 1.68.68 1.68 1.32 0 .24-.68 2.68-.76 2.68-.04 0-.08-.04-.16-.16-.24 0-.12.8-.24.92-.16.44-.72.96-.72 1.24 0 0 .12.24.2.36 0 .64-.56 1.32-.56 1.96 0 2.84 1.92 3.68 2.48 3.68.16 0 .6.04 1.12.04 2.12 0 2.84-1.2 3.48-1.2.12 0 .2.04.32.12 1.08-.28 2.44-2.44 2.44-2.8 0-.32-.84-.36-.84-.36-.88 0-1.44.96-2.04.96-.04 0-.12 0-.2-.04-1.48.4-2.12 1.04-3.72 1.04v-.4h-.24c0-.92.24-1.84.64-2.64.12-.36.8-.92.8-1.32 0-.36-.24-.24-.4-.52.16-.16.28-.44.28-.52l-.16-.12.28-.28c0-.28.04-.72.04-1.12 0-.76-.08-1.52-.44-1.52 0-1.44.12-.8 1.2-1.32.4-.24.64-.52 1.04-.8.68-.4.92 0 1.2-.52.24-.4.92-.4 1.32-.8.68-.68 1.16-1.84 1.44-2.64l-.12-.24c0-.68.4-1.32.4-2 0-1.12-.92-2.8-.92-3.96 0-.64 2.08-.8 2.08-2.24 0-.4-.64-.64-1.04-.64-.64 0-1.44.76-2.12 1.04l-.12-.12c-.2.08-.2.12-.52.12-.28 0-3.04-1.2-3.44-1.44-.12-.16-.52-.28-.52-.28-.28.12-.12.12-.92.12l-.16-.12-.24.12-.28-.24c-.16 0-.44.28-.68.28-.8 0-1.52-.4-2.2-.4-.44 0-.84.12-1.48.12-.16 0-.32 0-.52-.12l-.4.12-.4-.12c-1.32 0-2.48 1.04-3.8 1.04-.16 0-.16-.12-.4-.12-.04.8-1.24.28-2.12.92-.52.24-1.08.88-1.6 1.16-1.72.92-2.64 1.6-3.96 2.92-2.72 2.72-2 1.88-2.88 3.04-.56.92-.92 1.72-1.2 2.76-.44.16-.72 1.8-.72 1.92 0 .12.32.12.44.2.16.28 0 .8.56 1.44.12.16.92.92 1.04 1.08.12 1.24.72 1.16 2.12 1.16l.24-.12c.72 0 1.6.4 2.24.4.2-.2 1-.64 1.72-.64.52-.24.44-1.12 1.08-1.12.08 0 .16 0 .24.04l.68-.64c1.04 0 4.8-2.92 5.52-3.84.56-.52.68-1.64 1.48-2 .64-.28 2.24-4.68 2.48-4.72-.12-.56-.24-1.32-.92-1.32-1.04 0-1.16 1.56-1.32 2.24-.12.4-.64.52-.64.52-.4.4-.4 1.32-.8 1.72-.28.4-.64.52-.92.8-.12.12-.52.52-.68.64-.36.4-1.28.4-1.68.8-.64.64-1.52 1.2-2.28 2.24-.36-.24-2.64 1.72-2.72 1.72-1.2 0-2.24.8-3.48.92 0-.08-.36-.28-.92-.28-.12 0-.52.28-.64.28v-.52c-.16-.12-.92-.68-1.08-.8l-.12-.12c.28-.16.28-.28.28-.4 0-.28-.16-.28-.4-.28.4-.64.8-1.84 1.04-2.36.4-.8 1.08-1.44 1.6-2.12.56-.72 1.56-1.08 1.84-1.96.04 0 .04.04.08.04.32 0 1.12-1.12 1.52-1.12l.12.12c.4 0 .8-.52 1.04-.64.28-.2 1.64-.08 1.64-.84 0-.08 0-.12-.04-.2 0 0 1.96-.28 2.24-.4.28 0 .12-.56.52-.56l.12.16c.24-.2.6-.2.68-.28.12 0 .12.28.12.28 0-.48 1.56-.92 2.52-.92l-.28-.16c.4-.12.8-.12 1.2-.12.68 0 .8.28 1.2.28.4 0 1.04-.4 1.44-.56v.16c.16 0 .2-.16.4-.16v.04c0 .12 1.16.24 1.6.24h.24v.28c.04 0 .04.04.08.04.08 0 .12-.24.2-.32.52 0 .4.52 1.04.52.12-.08.28-.12.4-.12.36.12.44.48.84.48.12 0 .24-.04.36-.08.4 0 .52.64.92.64 0 .56-.68 1.08-1.2 1.32-1.28.64-.64 1.6-2.12 1.6l-1.96 1.96c-.12 0-1.84 1.6-1.84 1.72 0 1.08-1.32 1.12-1.32 2.4-1.16.92-1.12 1.16-1.88 2.12-.84 1.08-1.44 1.4-1.44 2.88-1.52.36-1.68 2.88-3.04 3.16 0 .04.04.04.04.08 0 .56-1.56 1.44-1.6 1.4-.08-.08-.24-.2-.32-.2-.04 0-.04 0-.08.04v.28c-.32 0-1.6 1.32-1.84 1.44-.56.28-1.32.52-1.72 1.08l-.16-.16c-.64 0-1.16.68-1.72.8-.44.08-1.96.12-1.96.44 0 .08 0 .16-.12.24 0-.16-.28-.4-.4-.4-.12.08-.28.12-.4.12s-.68-.64-.92-.64c-.16 0-.52.24-.68.24h-.12c.4-.4 0-1.2.4-1.56.24-.28.8-.4.8-.96 0-1.64-1.04-1.88-1.2-2.64-.2.16-.56.2-.68.28-1.56.28-1.44.68-2.08 2-.16.24-.28.36-.28.64 0 .4.28.52.4.92.4 1.08.52 1.32 1.44 2.12-.08.12-.12 0-.12.28zm.64-2c.24-.16.36-.12.56-.12l-.16.4c-.12 0-.28-.16-.4-.28zm.8-.64c.08 0 .12.04.12.12 0 .04-.04.12-.12.12-.04 0-.08-.08-.08-.12 0-.08.04-.12.08-.12zm14.12-.96c0 .08-.04.12-.04.12-.04 0-.08-.04-.08-.12 0-.08.04-.08.08-.08 0 0 .04 0 .04.08zm7.16-10.16c0-.12.64 0 .64-.64l-.12-.12c.4-.68.64-.8 1.16-1.32.72-.72.64-2 1.88-2.52l.12-.4c0-.28 1.32-1.72 1.44-1.72l1.48-1.44h.36v.64h.28c0 .28.28.8.4.92 0 .16 0 1.6-.4 1.72.12 0 .28.16.28.28 0 .24-1.48 2.36-1.72 2.64-.6.8-1.68 1.04-2 2.24 0 .12-1.72.92-1.84.92-.12 0-1.96-.8-1.96-1.2zm-.16.8c0-.12.16-.12.28-.12v.24c-.12 0-.28 0-.28-.12zm-.12-.4c.08 0 .08.04.08.08s0 .08-.08.08c-.04 0-.08-.04-.08-.08s.04-.08.08-.08zm-10.44-8.84c0 .04-.04.08-.04.08-.04 0-.08-.04-.08-.08 0-.08.04-.08.08-.08 0 0 .04 0 .04.08zm18.36-1.96c0 .04-.04.08-.04.08-.04 0-.08-.04-.08-.08 0-.08.04-.12.08-.12 0 0 .04.04.04.12zm-4.36-.28c.08 0 .08.08.08.12 0 .08 0 .16-.08.16-.04 0-.08-.08-.08-.16 0-.04.04-.12.08-.12z"/><path d="M431.399 40.56h.28v-.16l-.28.16zm5.56-14.68c.12.4 1.2.4 1.56.4.68 0 5.48-2.76 5.48-3.56 0-.12-.36-.2-.48-.2-.4 0-3.16 1.24-3.16 1.8-.12 0-1.28.52-1.44.52-.24 0-.4-.4-.4-.68 0-.48 1.44-2.12 2-2.76.4-.44 1.96-2.48 1.96-3.04 0-.52-.64-.8-1.16-.8-1.52 0-1.88 1.72-3.04 2.4-.44.88-3 1.72-3 3.16 0 .12.2.24.32.24.4-.12 1.36-.88 1.6-1.16l.28.28c0 .68-.92.92-.92 1.96 0 .28.28 1.2.4 1.44zm7.64-14.24c0 .6.64 1.84 1.4 1.84.64 0 1.64-1.2 1.64-1.84 0-1.04-1.04-1.32-1.84-1.32-.68 0-1.2.8-1.2 1.32z"/><path d="M446.479 24.2c0 1.32 1.44 2.24 2.76 2.24 1.72 0 2.36-2.24 4.08-2.24.56 0 .92.24 1.48.24.64 0 2.48-.76 2.48-1.56 0-.4-.52-.52-.92-.52-.64 0-.8.76-1.44.76-.28 0-.52 0-.52-.24 0-.56 2.48-2.12 2.48-3.84 0-1.04-.52-2.12-1.56-2.12-1.16 0-2.56 1.48-3.04 2.4-.72 1.4.16 4.6-2.12 4.6-.52 0-.8-.12-.8-.64.88-1.12 2.24-2.72 2.24-4.12 0-1.24-.8-2.24-1.84-2.24-1.44 0-1.56.92-2.48 1.6-.84.64-2.12 1.28-2.12 1.44-.16.16-2.36 3.08-2.36 3.08 0 .4.28.4.52.4 1.52 0 3.72-4.28 5.52-4.28-.24.84-1.12 1.12-1.2 2-.52 1.04-1.16 1.72-1.16 3.04zm6.6-2.64c0-1.16 1-2.16 1.32-2.52h.64c0 1-1 1.12-1.16 2.24 0 .16-.36.72-.52.72-.28 0-.28-.2-.28-.44z"/><path d="M458.559 25.04c.44.56 1.2 1.32 2 1.32 1.88 0 6.52-2.32 6.52-3.48 0-.2-.08-.32-.36-.32-.32 0-1.4.36-2.08 1.2-.12-.08-.28-.16-.4-.16-.12.16-1.04.8-1.44.8l-.28-.16c-.12.16-.64.4-.8.56-.64 0-1.32-.16-1.32-.8 0-2 3.72-1.08 3.72-2.52 0-.36-.28-.28-.52-.28-.68 0-1.2.28-1.72.28-.08-.12-.16 0-.16-.28 0-.36 2.24-2.36 2.8-2.36.24 0 .4 0 .64.12-.12 0-.12.16-.12.28h.12c0 .64-.4.92-.4 1.6 1.2 0 1.32-.84 1.72-1.88 0-.2-.28-.24-.28-.48 0-.04 0-.08.04-.16-.56-.8-1.2-1.08-2.12-1.08-.16 0-.52.28-.68.4-1.16.44-1.88.4-2.76 1.72-.08-.04-.16-.04-.24-.04-.92 0-1.04 1.36-2.4 1.36 0 .4-1.56 1.8-1.84 2.08.16.24.28.52.68.52.12 0 1.04-.6 1.16-.76.12.12.56 1.88.56 2.4 0 .04-.04.08-.04.12z"/><path d="M478.359 22.68c-.04-.12-.2-.16-.44-.16-.68 0-1.88.32-2.28.32-.24 0-.4 0-.4-.28 0-1.2 3.16-2.68 3.16-3.56 0-.8-.64-1.32-1.44-1.32-1.56 0-1.56 1.32-2.76 2.24-.4 0-.12-1.96-2.12-1.96-1.48 0-4.68 2.48-5 3.72-.36.56-1.04.8-1.04 1.6h.36c1.36 0 3.56-4.28 5.28-4.28.28 0 .28.12.28.28 0 1.04-.92 2.12-1.48 2.88-.12.16-.36.16-.52.4-.12.28 0 .68-.24.92 0 .36-1.32 1.32-1.32 1.6 0 .68.72 1.2 1.32 1.2 1.72 0 3.4-3.56 4.08-3.56.2 0 .24.12.24.28v.16c0 .6 1.44 1.12 2 1.12.84 0 2.44-.72 2.44-1.4 0-.16-.12-.2-.12-.2z"/><path d="M10.877 27.358L4.033 16.239h-.072l.096 11.119H.07V10.356h4.683l6.82 11.094h.072l-.096-11.094h3.987v17.002h-4.659zm8.165-17.002h4.13v17.002h-4.13zm22.597 14.648c-.752.865-1.681 1.549-2.785 2.054-1.105.504-2.378.756-3.819.756-1.313 0-2.525-.216-3.638-.648a8.568 8.568 0 0 1-2.894-1.837 8.524 8.524 0 0 1-1.921-2.846c-.464-1.105-.696-2.322-.696-3.65 0-1.361.236-2.594.708-3.699a8.228 8.228 0 0 1 1.957-2.821 8.658 8.658 0 0 1 2.93-1.789c1.121-.417 2.33-.625 3.626-.625 1.201 0 2.382.212 3.542.637 1.161.424 2.102 1.044 2.822 1.861l-2.786 2.785a3.446 3.446 0 0 0-1.512-1.176 5.026 5.026 0 0 0-1.922-.385c-.72 0-1.38.133-1.981.397-.6.264-1.116.628-1.549 1.092a4.99 4.99 0 0 0-1.008 1.645 5.814 5.814 0 0 0-.361 2.078c0 .768.121 1.472.361 2.113.24.64.572 1.189.996 1.645.425.456.933.812 1.525 1.069a4.854 4.854 0 0 0 1.945.384c.817 0 1.529-.16 2.138-.481a4.154 4.154 0 0 0 1.465-1.248l2.857 2.689zm12.152 2.354l-6.316-7.829h-.048v7.829h-4.035V10.356h4.035v6.916h.072l6.075-6.916h5.139l-7.324 7.828 7.757 9.174h-5.355zm25.287-11.767c0 .992-.184 1.829-.553 2.509a4.524 4.524 0 0 1-1.489 1.645 6.565 6.565 0 0 1-2.161.913 11.08 11.08 0 0 1-2.545.288h-2.042v6.412h-4.106V10.356h6.244c.928 0 1.797.092 2.605.276.809.184 1.513.48 2.114.888.6.408 1.072.945 1.416 1.609.345.665.517 1.485.517 2.462zm-4.107.024c0-.401-.08-.729-.24-.985a1.672 1.672 0 0 0-.648-.6 2.786 2.786 0 0 0-.925-.288 7.727 7.727 0 0 0-1.069-.072h-1.801v4.01h1.729c.385 0 .753-.032 1.105-.096s.668-.176.949-.336c.28-.16.5-.373.66-.637.16-.264.24-.596.24-.996zm16.666 11.743l-1.321-3.338h-6.58l-1.248 3.338h-4.467l7.132-17.002h3.987l7.06 17.002h-4.563zm-4.563-12.464l-2.161 5.836h4.275l-2.114-5.836zm17.363 5.259v7.205h-4.107v-7.205l-6.387-9.797h4.971l3.626 6.291 3.626-6.291h4.803l-6.532 9.797zm18.611 7.205l-6.844-11.119h-.072l.096 11.119h-3.986V10.356h4.682l6.82 11.094h.072l-.096-11.094h3.987v17.002h-4.659zm8.165 0V10.356h11.431v3.482h-7.469v3.194h7.061v3.29h-7.061v3.53h7.901v3.506h-11.863z" fill="#8e181b"/></g></svg>