<?xml version="1.0" encoding="UTF-8" standalone="no"?><!DOCTYPE svg PUBLIC "-//W3C//DTD SVG 1.1//EN" "http://www.w3.org/Graphics/SVG/1.1/DTD/svg11.dtd"><svg width="100%" height="100%" viewBox="0 0 479 41" version="1.1" xmlns="http://www.w3.org/2000/svg" xmlns:xlink="http://www.w3.org/1999/xlink" xml:space="preserve" style="fill-rule:evenodd;clip-rule:evenodd;stroke-linejoin:round;stroke-miterlimit:1.41421;"><g><path d="M169.799,26.6c0,0.24 1.96,1.04 2.24,1.04c0.04,0 0.08,0 0.16,0c0.36,0 1.2,-0.08 1.2,-0.24l-0.04,-0.04c0.48,0 0.92,0.2 1.36,0.2c0,0 0.96,-0.32 1.4,-0.32l0.4,0.12c0.52,0 5.56,-1.84 5.68,-2.36c1.08,-0.52 1.32,-0.68 2.12,-1.32c0.28,-0.28 0.64,-0.12 0.92,-0.28c0.8,-0.4 2.52,-2.92 2.76,-2.92l0,0.04c0.8,-1.08 1.36,-2.16 2.64,-3.04c0.28,-0.28 0.8,-2.92 0.8,-3.04l0.4,0l-0.12,0.28l0.4,0.12c0.16,-0.2 0.12,-0.28 0.52,-0.28c0,0.32 -0.12,0.08 -0.12,0.4c0.52,0.92 1.68,0.68 1.68,1.32c0,0.24 -0.68,2.68 -0.76,2.68c-0.04,0 -0.08,-0.04 -0.16,-0.16c-0.24,0 -0.12,0.8 -0.24,0.92c-0.16,0.44 -0.72,0.96 -0.72,1.24c0,0 0.12,0.24 0.2,0.36c0,0.64 -0.56,1.32 -0.56,1.96c0,2.84 1.92,3.68 2.48,3.68c0.16,0 0.6,0.04 1.12,0.04c2.12,0 2.84,-1.2 3.48,-1.2c0.12,0 0.2,0.04 0.32,0.12c1.08,-0.28 2.44,-2.44 2.44,-2.8c0,-0.32 -0.84,-0.36 -0.84,-0.36c-0.88,0 -1.44,0.96 -2.04,0.96c-0.04,0 -0.12,0 -0.2,-0.04c-1.48,0.4 -2.12,1.04 -3.72,1.04l0,-0.4l-0.24,0c0,-0.92 0.24,-1.84 0.64,-2.64c0.12,-0.36 0.8,-0.92 0.8,-1.32c0,-0.36 -0.24,-0.24 -0.4,-0.52c0.16,-0.16 0.28,-0.44 0.28,-0.52l-0.16,-0.12l0.28,-0.28c0,-0.28 0.04,-0.72 0.04,-1.12c0,-0.76 -0.08,-1.52 -0.44,-1.52c0,-1.44 0.12,-0.8 1.2,-1.32c0.4,-0.24 0.64,-0.52 1.04,-0.8c0.68,-0.4 0.92,0 1.2,-0.52c0.24,-0.4 0.92,-0.4 1.32,-0.8c0.68,-0.68 1.16,-1.84 1.44,-2.64l-0.12,-0.24c0,-0.68 0.4,-1.32 0.4,-2c0,-1.12 -0.92,-2.8 -0.92,-3.96c0,-0.64 2.08,-0.8 2.08,-2.24c0,-0.4 -0.64,-0.64 -1.04,-0.64c-0.64,0 -1.44,0.76 -2.12,1.04l-0.12,-0.12c-0.2,0.08 -0.2,0.12 -0.52,0.12c-0.28,0 -3.04,-1.2 -3.44,-1.44c-0.12,-0.16 -0.52,-0.28 -0.52,-0.28c-0.28,0.12 -0.12,0.12 -0.92,0.12l-0.16,-0.12l-0.24,0.12l-0.28,-0.24c-0.16,0 -0.44,0.28 -0.68,0.28c-0.8,0 -1.52,-0.4 -2.2,-0.4c-0.44,0 -0.84,0.12 -1.48,0.12c-0.16,0 -0.32,0 -0.52,-0.12l-0.4,0.12l-0.4,-0.12c-1.32,0 -2.48,1.04 -3.8,1.04c-0.16,0 -0.16,-0.12 -0.4,-0.12c-0.04,0.8 -1.24,0.28 -2.12,0.92c-0.52,0.24 -1.08,0.88 -1.6,1.16c-1.72,0.92 -2.64,1.6 -3.96,2.92c-2.72,2.72 -2,1.88 -2.88,3.04c-0.56,0.92 -0.92,1.72 -1.2,2.76c-0.44,0.16 -0.72,1.8 -0.72,1.92c0,0.12 0.32,0.12 0.44,0.2c0.16,0.28 0,0.8 0.56,1.44c0.12,0.16 0.92,0.92 1.04,1.08c0.12,1.24 0.72,1.16 2.12,1.16l0.24,-0.12c0.72,0 1.6,0.4 2.24,0.4c0.2,-0.2 1,-0.64 1.72,-0.64c0.52,-0.24 0.44,-1.12 1.08,-1.12c0.08,0 0.16,0 0.24,0.04l0.68,-0.64c1.04,0 4.8,-2.92 5.52,-3.84c0.56,-0.52 0.68,-1.64 1.48,-2c0.64,-0.28 2.24,-4.68 2.48,-4.72c-0.12,-0.56 -0.24,-1.32 -0.92,-1.32c-1.04,0 -1.16,1.56 -1.32,2.24c-0.12,0.4 -0.64,0.52 -0.64,0.52c-0.4,0.4 -0.4,1.32 -0.8,1.72c-0.28,0.4 -0.64,0.52 -0.92,0.8c-0.12,0.12 -0.52,0.52 -0.68,0.64c-0.36,0.4 -1.28,0.4 -1.68,0.8c-0.64,0.64 -1.52,1.2 -2.28,2.24c-0.36,-0.24 -2.64,1.72 -2.72,1.72c-1.2,0 -2.24,0.8 -3.48,0.92c0,-0.08 -0.36,-0.28 -0.92,-0.28c-0.12,0 -0.52,0.28 -0.64,0.28l0,-0.52c-0.16,-0.12 -0.92,-0.68 -1.08,-0.8l-0.12,-0.12c0.28,-0.16 0.28,-0.28 0.28,-0.4c0,-0.28 -0.16,-0.28 -0.4,-0.28c0.4,-0.64 0.8,-1.84 1.04,-2.36c0.4,-0.8 1.08,-1.44 1.6,-2.12c0.56,-0.72 1.56,-1.08 1.84,-1.96c0.04,0 0.04,0.04 0.08,0.04c0.32,0 1.12,-1.12 1.52,-1.12l0.12,0.12c0.4,0 0.8,-0.52 1.04,-0.64c0.28,-0.2 1.64,-0.08 1.64,-0.84c0,-0.08 0,-0.12 -0.04,-0.2c0,0 1.96,-0.28 2.24,-0.4c0.28,0 0.12,-0.56 0.52,-0.56l0.12,0.16c0.24,-0.2 0.6,-0.2 0.68,-0.28c0.12,0 0.12,0.28 0.12,0.28c0,-0.48 1.56,-0.92 2.52,-0.92l-0.28,-0.16c0.4,-0.12 0.8,-0.12 1.2,-0.12c0.68,0 0.8,0.28 1.2,0.28c0.4,0 1.04,-0.4 1.44,-0.56l0,0.16c0.16,0 0.2,-0.16 0.4,-0.16l0,0.04c0,0.12 1.16,0.24 1.6,0.24l0.24,0l0,0.28c0.04,0 0.04,0.04 0.08,0.04c0.08,0 0.12,-0.24 0.2,-0.32c0.52,0 0.4,0.52 1.04,0.52c0.12,-0.08 0.28,-0.12 0.4,-0.12c0.36,0.12 0.44,0.48 0.84,0.48c0.12,0 0.24,-0.04 0.36,-0.08c0.4,0 0.52,0.64 0.92,0.64c0,0.56 -0.68,1.08 -1.2,1.32c-1.28,0.64 -0.64,1.6 -2.12,1.6l-1.96,1.96c-0.12,0 -1.84,1.6 -1.84,1.72c0,1.08 -1.32,1.12 -1.32,2.4c-1.16,0.92 -1.12,1.16 -1.88,2.12c-0.84,1.08 -1.44,1.4 -1.44,2.88c-1.52,0.36 -1.68,2.88 -3.04,3.16c0,0.04 0.04,0.04 0.04,0.08c0,0.56 -1.56,1.44 -1.6,1.4c-0.08,-0.08 -0.24,-0.2 -0.32,-0.2c-0.04,0 -0.04,0 -0.08,0.04l0,0.28c-0.32,0 -1.6,1.32 -1.84,1.44c-0.56,0.28 -1.32,0.52 -1.72,1.08l-0.16,-0.16c-0.64,0 -1.16,0.68 -1.72,0.8c-0.44,0.08 -1.96,0.12 -1.96,0.44c0,0.08 0,0.16 -0.12,0.24c0,-0.16 -0.28,-0.4 -0.4,-0.4c-0.12,0.08 -0.28,0.12 -0.4,0.12c-0.12,0 -0.68,-0.64 -0.92,-0.64c-0.16,0 -0.52,0.24 -0.68,0.24l-0.12,0c0.4,-0.4 0,-1.2 0.4,-1.56c0.24,-0.28 0.8,-0.4 0.8,-0.96c0,-1.64 -1.04,-1.88 -1.2,-2.64c-0.2,0.16 -0.56,0.2 -0.68,0.28c-1.56,0.28 -1.44,0.68 -2.08,2c-0.16,0.24 -0.28,0.36 -0.28,0.64c0,0.4 0.28,0.52 0.4,0.92c0.4,1.08 0.52,1.32 1.44,2.12c-0.08,0.12 -0.12,0 -0.12,0.28ZM170.439,24.6c0.24,-0.16 0.36,-0.12 0.56,-0.12l-0.16,0.4c-0.12,0 -0.28,-0.16 -0.4,-0.28ZM171.239,23.96c0.08,0 0.12,0.04 0.12,0.12c0,0.04 -0.04,0.12 -0.12,0.12c-0.04,0 -0.08,-0.08 -0.08,-0.12c0,-0.08 0.04,-0.12 0.08,-0.12ZM185.359,23c0,0.08 -0.04,0.12 -0.04,0.12c-0.04,0 -0.08,-0.04 -0.08,-0.12c0,-0.08 0.04,-0.08 0.08,-0.08c0,0 0.04,0 0.04,0.08ZM192.519,12.84c0,-0.12 0.64,0 0.64,-0.64l-0.12,-0.12c0.4,-0.68 0.64,-0.8 1.16,-1.32c0.72,-0.72 0.64,-2 1.88,-2.52l0.12,-0.4c0,-0.28 1.32,-1.72 1.44,-1.72l1.48,-1.44l0.36,0l0,0.64l0.28,0c0,0.28 0.28,0.8 0.4,0.92c0,0.16 0,1.6 -0.4,1.72c0.12,0 0.28,0.16 0.28,0.28c0,0.24 -1.48,2.36 -1.72,2.64c-0.6,0.8 -1.68,1.04 -2,2.24c0,0.12 -1.72,0.92 -1.84,0.92c-0.12,0 -1.96,-0.8 -1.96,-1.2ZM192.359,13.64c0,-0.12 0.16,-0.12 0.28,-0.12l0,0.24c-0.12,0 -0.28,0 -0.28,-0.12ZM192.239,13.24c0.08,0 0.08,0.04 0.08,0.08c0,0.04 0,0.08 -0.08,0.08c-0.04,0 -0.08,-0.04 -0.08,-0.08c0,-0.04 0.04,-0.08 0.08,-0.08ZM181.799,4.4c0,0.04 -0.04,0.08 -0.04,0.08c-0.04,0 -0.08,-0.04 -0.08,-0.08c0,-0.08 0.04,-0.08 0.08,-0.08c0,0 0.04,0 0.04,0.08ZM200.159,2.44c0,0.04 -0.04,0.08 -0.04,0.08c-0.04,0 -0.08,-0.04 -0.08,-0.08c0,-0.08 0.04,-0.12 0.08,-0.12c0,0 0.04,0.04 0.04,0.12ZM195.799,2.16c0.08,0 0.08,0.08 0.08,0.12c0,0.08 0,0.16 -0.08,0.16c-0.04,0 -0.08,-0.08 -0.08,-0.16c0,-0.04 0.04,-0.12 0.08,-0.12Z" style="fill:#000;fill-rule:nonzero;"/><path d="M196.999,40.56l0.28,0l0,-0.16l-0.28,0.16ZM202.559,25.88c0.12,0.4 1.2,0.4 1.56,0.4c0.68,0 5.48,-2.76 5.48,-3.56c0,-0.12 -0.36,-0.2 -0.48,-0.2c-0.4,0 -3.16,1.24 -3.16,1.8c-0.12,0 -1.28,0.52 -1.44,0.52c-0.24,0 -0.4,-0.4 -0.4,-0.68c0,-0.48 1.44,-2.12 2,-2.76c0.4,-0.44 1.96,-2.48 1.96,-3.04c0,-0.52 -0.64,-0.8 -1.16,-0.8c-1.52,0 -1.88,1.72 -3.04,2.4c-0.44,0.88 -3,1.72 -3,3.16c0,0.12 0.2,0.24 0.32,0.24c0.4,-0.12 1.36,-0.88 1.6,-1.16l0.28,0.28c0,0.68 -0.92,0.92 -0.92,1.96c0,0.28 0.28,1.2 0.4,1.44ZM210.199,11.64c0,0.6 0.64,1.84 1.4,1.84c0.64,0 1.64,-1.2 1.64,-1.84c0,-1.04 -1.04,-1.32 -1.84,-1.32c-0.68,0 -1.2,0.8 -1.2,1.32Z" style="fill:#000;fill-rule:nonzero;"/><path d="M210.439,21.84c-0.8,0.2 -1.56,0.72 -1.56,1.08c0,0.28 0.32,0.44 1.16,0.48l0,0.08c0.04,0.04 0.04,0.04 0.04,0.08l0.4,1.44c0.12,0.64 1.72,1.32 2.36,1.32c2.12,0 5.56,-1.72 6.6,-3.32c-0.24,-0.52 -1.32,-0.24 -1.32,-0.52l0,-2.48c0,-0.8 -0.8,-1.6 -0.8,-2.52c0,-0.68 2.52,-0.4 2.52,-2.24c0,-0.68 -0.8,-1.08 -1.44,-1.08c-0.08,0.08 -0.44,0.16 -0.68,0.28l-2.36,2.24c-0.4,1.04 -3.84,4.08 -3.72,4.08l-1.2,1.08ZM212.599,24.32c0.12,-0.24 0.36,-0.64 0.36,-1.04c0,-0.52 -1.04,-0.64 -1.04,-1.32c0,-0.8 2.92,-2.76 3.56,-3.04c0,0.4 0.04,2.92 -0.64,4.08c-0.4,0.68 -1.32,0.96 -1.88,1.6c-0.12,0 -0.24,-0.12 -0.36,-0.28Z" style="fill:#000;fill-rule:nonzero;"/><path d="M220.719,25.04c0.44,0.56 1.2,1.32 2,1.32c1.88,0 6.52,-2.32 6.52,-3.48c0,-0.2 -0.08,-0.32 -0.36,-0.32c-0.32,0 -1.4,0.36 -2.08,1.2c-0.12,-0.08 -0.28,-0.16 -0.4,-0.16c-0.12,0.16 -1.04,0.8 -1.44,0.8l-0.28,-0.16c-0.12,0.16 -0.64,0.4 -0.8,0.56c-0.64,0 -1.32,-0.16 -1.32,-0.8c0,-2 3.72,-1.08 3.72,-2.52c0,-0.36 -0.28,-0.28 -0.52,-0.28c-0.68,0 -1.2,0.28 -1.72,0.28c-0.08,-0.12 -0.16,0 -0.16,-0.28c0,-0.36 2.24,-2.36 2.8,-2.36c0.24,0 0.4,0 0.64,0.12c-0.12,0 -0.12,0.16 -0.12,0.28l0.12,0c0,0.64 -0.4,0.92 -0.4,1.6c1.2,0 1.32,-0.84 1.72,-1.88c0,-0.2 -0.28,-0.24 -0.28,-0.48c0,-0.04 0,-0.08 0.04,-0.16c-0.56,-0.8 -1.2,-1.08 -2.12,-1.08c-0.16,0 -0.52,0.28 -0.68,0.4c-1.16,0.44 -1.88,0.4 -2.76,1.72c-0.08,-0.04 -0.16,-0.04 -0.24,-0.04c-0.92,0 -1.04,1.36 -2.4,1.36c0,0.4 -1.56,1.8 -1.84,2.08c0.16,0.24 0.28,0.52 0.68,0.52c0.12,0 1.04,-0.6 1.16,-0.76c0.12,0.12 0.56,1.88 0.56,2.4c0,0.04 -0.04,0.08 -0.04,0.12Z" style="fill:#000;fill-rule:nonzero;"/><path d="M245.319,23.72c0,1.44 0.92,3.44 2.52,3.44l0.36,-0.12l0.56,0.12c0.12,-0.08 1.88,-0.52 1.88,-0.56c0.04,0 0.04,0 0.08,0.04c0.28,-0.4 0.68,-0.8 1.2,-0.8l0,-0.12l0.8,-0.16c0,-0.24 0.52,-0.64 0.76,-0.64l0.28,0.12c0.8,-1.16 2.48,-1.68 3.16,-2.88c0.16,-0.16 1.72,-1.32 1.84,-1.32c0.36,0 0.6,0.04 0.6,0.48c0,0.4 -0.6,2.04 -0.6,2.4c0,2.12 1.72,3.16 3.72,3.16c0.4,0 3.44,-1.44 3.56,-1.44l-0.12,-0.12c1.32,-0.16 2.24,-1.48 2.24,-2.92c0,-0.24 -0.16,-0.24 -0.4,-0.24c-0.12,0 -1.76,0.64 -2.24,1.32c-0.68,0.36 -1.6,0.64 -2.4,0.76c-0.12,0.28 -0.52,0.28 -0.76,0.28c-0.16,0 -0.28,0 -0.4,-0.12l-1.48,0c0,-1.08 0.16,-1.32 1.08,-1.88c0,0 0.2,-0.28 0.32,-0.28c0.04,0 0.08,0 0.08,0.04c0.32,-0.76 0.76,-1.52 1.44,-2.12c0.4,-0.36 1.24,-0.12 1.2,-0.84c0,-0.16 -0.16,-0.32 -0.16,-0.48c0,-0.12 0.8,-0.28 0.8,-0.28c0.48,-0.28 1.12,-0.92 1.12,-1.32c0,-0.16 -0.04,-0.32 -0.04,-0.36c0,-0.28 1.04,-1.32 1.04,-1.32c0,-0.16 -0.28,-0.48 -0.28,-0.8c0.4,0 0.8,-0.16 1.08,-0.4c0.52,-0.52 3.44,-3.44 3.44,-3.84l2.08,-2.12c0,0 1.48,-1.16 1.6,-1.32c0.52,-0.64 2.12,-3.16 2.92,-3.28c0,-1.48 0,-1.28 -0.8,-2.12l0,-0.12l-2,0c-0.52,0 -1.32,1.32 -1.56,1.72c-0.28,0.4 -2,1.84 -2.4,1.84l-0.4,0.92c-0.4,0 -1.44,2.12 -2.24,2.24c-0.4,0.4 -1.32,1.32 -1.32,1.44l-0.12,0l0,-0.12l-0.12,0c-0.12,0.2 -1.08,0.92 -1.08,1.32c-1.48,1.48 -4.44,4.48 -5,5c-0.92,0.88 -0.76,0.32 -1.32,1.88c-0.12,0.12 -1.32,1.04 -1.44,1.16c-0.28,0.28 -1.88,1.32 -1.88,1.72c-0.72,0.16 -1.24,0.56 -1.56,1.32l-0.52,-0.12c-0.64,0.12 -1.04,1.24 -1.84,1.24c-0.12,0 -0.12,-0.04 -0.2,-0.04c-0.28,0 -0.64,0.92 -1.16,0.92c-0.12,0 -0.4,-0.16 -0.4,-0.28c-0.36,0.28 -1.64,0.92 -2,0.92c0,0 -0.24,-0.04 -0.36,-0.12l-0.28,0.28c-0.32,0 -0.24,-0.48 -0.24,-0.56c-0.12,0.28 -0.28,0.28 -0.52,0.28c-0.28,0 -0.56,-0.12 -0.56,-0.4c0,-0.92 0.96,-1.2 1.32,-1.72l-0.12,-0.12l1.08,-1.08l0.36,0l0.96,-0.92c0.72,0 2.84,-1.48 3.16,-2.36c0.24,-0.68 0.24,-1.32 0.64,-2c0.28,-0.24 0.92,-0.12 1.32,-0.64c0.28,-0.28 0.68,-1.2 0.92,-1.32c0.96,-0.28 1.4,-1.32 2.24,-2l0,-0.92c0.16,-0.12 1.6,-2.48 1.6,-2.76c0.08,-1.2 0.52,-2.2 0.52,-3.56c-0.64,-0.68 -0.8,-1.32 -0.8,-2.24l0.16,-0.28c-0.4,0 -0.52,-0.24 -0.92,-0.52c-0.96,-0.68 -2.64,-0.56 -2.64,-1.6c-0.32,0 -0.92,0.16 -0.92,0.16c-0.2,0 -0.32,-0.16 -0.72,-0.16c-1.12,0 -2.96,0.04 -3.4,0.68c-0.64,0.32 -4.12,0.6 -4.88,2.12c-1.72,0.76 -3.4,1.6 -4.48,3.04c-0.8,0.76 -1.44,1.04 -2.12,2.08c-0.12,0.28 -0.52,0.28 -0.64,0.56c-0.28,0.4 0,0.52 -0.4,0.76c-0.84,0.64 -1.2,2.88 -1.2,4.24c0,1.32 0.88,1.44 1.04,2.64c0.28,0.4 1.08,0.52 1.48,0.68c0.24,0.12 0.12,0.64 0.4,0.76c0.12,-0.12 0.24,-0.24 0.24,-0.4c0,0.4 0.68,0.56 0.92,0.56c0.96,0 0,-1.16 1.28,-1.16c0.12,0 0.28,0 0.32,-0.04c0.92,-0.52 1.2,-0.8 2.36,-1.04c0.44,-0.16 2.72,-2.04 2.92,-1.88c0.4,-0.4 0.8,-1.04 1.2,-1.32c0.36,0 1.12,-0.52 1.12,-0.72c0,0 -0.04,-0.04 -0.08,-0.04c0.28,-0.56 0.84,-0.8 0.92,-1.32c0.16,-0.8 1.44,-2 1.6,-2.64l-0.16,-0.56c0.04,0 0.8,-0.84 0.8,-1.84c0,-0.52 -0.24,-1.2 -0.8,-1.2c-0.72,0 -0.64,0.8 -0.92,1.32c-0.32,0.6 -0.76,0.88 -0.76,1.6l-0.68,0.8c0,0.12 -1.44,2.12 -1.72,2.52c-0.24,0.36 -1.44,1.04 -1.84,1.44c-0.56,0.56 -1.12,0.76 -2,1.04c-0.08,0.28 -0.16,0.56 -0.44,0.56c-0.08,0 -0.12,0 -0.2,-0.04c-0.4,0.16 0.12,0.28 -0.8,0.56c-0.4,0.12 -2.36,0.92 -2.52,0.92c-0.04,0 -0.56,-0.12 -0.76,-0.16c-0.28,0 -0.28,0.16 -0.4,0.16c-0.28,0 -0.8,-0.16 -0.8,-0.4l0,-2l0.12,-0.12c0,-1.48 1.4,-3.12 2.4,-4.36c0.44,-0.52 1.16,-0.64 1.44,-1.32c0.12,-0.24 1.6,-1.32 1.96,-1.56c1.72,-1.08 3.56,-1.68 5.56,-2.28l-0.28,-0.12c0.8,-0.24 1.68,-0.12 2.4,-0.4l-0.12,-0.12l0.24,-0.12c0.36,0 0.8,0.24 1.08,0.24c0.12,-0.16 0.76,-0.12 1.04,-0.12c2,0 3.28,1.56 3.28,2.92c0,1.16 -0.44,3.28 -1.68,3.56c-0.56,0.4 -0.8,0.92 -1.2,1.32c-1.24,1.2 -1.8,1.2 -3.16,3.04c-0.88,0 -1.4,1.24 -2,1.68c-1.04,0.72 -2.24,1.28 -2.24,2.92c-1.72,1.44 -3.16,3.96 -3.16,6.2ZM254.439,23.72c0.08,0 0.08,0.08 0.08,0.12c0,0.08 0,0.16 -0.08,0.16c-0.08,0 -0.12,-0.08 -0.12,-0.16c0,-0.04 0.04,-0.12 0.12,-0.12ZM262.199,21.48c0,0.04 -0.04,0.08 -0.04,0.08c-0.04,0 -0.08,-0.04 -0.08,-0.08c0,-0.08 0.04,-0.08 0.08,-0.08c0,0 0.04,0 0.04,0.08ZM259.559,19.88l0.16,0l-0.28,0.28l-0.12,0c0,-0.28 0.12,-0.28 0.24,-0.28ZM264.039,19.12c0.08,0 0.12,0.04 0.12,0.12c0,0.04 -0.04,0.12 -0.12,0.12c-0.04,0 -0.08,-0.08 -0.08,-0.12c0,-0.08 0.04,-0.12 0.08,-0.12ZM242.159,17c0.08,0.04 0.08,0.16 0.08,0.24c0,0.12 -0.04,0.28 -0.12,0.28c-0.04,0 -0.08,-0.12 -0.08,-0.28c0,-0.2 0.08,-0.28 0.12,-0.24ZM241.359,17l0.12,0l0,0.4c-0.04,-0.16 -0.12,-0.32 -0.12,-0.36l0,-0.04ZM262.199,16.6c0,0.12 0,0.12 -0.12,0.12c0,0 -0.04,0 -0.04,-0.04c0,-0.04 0.12,-0.12 0.16,-0.12l0,0.04ZM262.479,16.08c0,-0.16 0.08,-0.16 0.2,-0.16c0.08,0 0.16,0 0.2,0l-0.16,0.28c-0.2,0 -0.16,-0.04 -0.24,-0.12ZM269.999,12.12c0,0.04 -0.04,0.08 -0.04,0.08c-0.04,0 -0.08,-0.04 -0.08,-0.08c0,-0.08 0.04,-0.12 0.08,-0.12c0,0 0.04,0.04 0.04,0.12ZM252.839,1.96l0.12,0l-0.12,0.12l0,-0.12Z" style="fill:#000;fill-rule:nonzero;"/><path d="M259.479,36.52c0,1.04 0.4,1.32 1.44,1.32c1.16,0 1.52,-1.32 2.12,-2c2.44,-2.76 4.24,-5.44 7.4,-8.84c0.12,-0.24 2.24,-2.88 2.52,-3.04c0.4,-0.36 2.48,-2.36 2.88,-2.76c0.8,-0.8 3.32,-2.64 4.24,-2.64c0.24,0 0.52,0 0.52,0.28c0,0.04 0,0.08 0,0.12c-1.08,1.92 -3.04,2.68 -3.04,4.48c0,1.2 0.68,2.24 2,2.24c2.08,0 3.68,-1.84 5.28,-3.04c0.04,-0.04 0.04,-0.04 0.04,-0.08c0,-0.2 -0.4,-0.32 -0.84,-0.32l-3.16,1.72c-0.28,0.4 -1.08,0.56 -1.48,0.56c0,-1.2 3.72,-3.16 3.72,-5.16c0,-1.2 -1.08,-2.36 -2.4,-2.36c-0.92,0 -1.44,1.04 -2.36,1.04c0,-1.6 3.68,-4.64 4.76,-6.2c0,-0.08 0.04,-0.16 0.04,-0.24c0,-0.84 -0.92,-0.84 -1.52,-0.84c-2.28,0 -3.24,3.04 -5.12,4.92c-0.36,0.36 -2.52,2.08 -3.04,2.36c-0.68,0.4 -1.44,0.64 -2,1.2c-0.4,0.24 -2.8,2.52 -3.2,2.8c-0.52,0.4 -1.2,0.52 -1.2,1.32c0,0.12 0,0.24 0.28,0.24c0.4,0 3.56,-2.4 4.12,-2.4c0.16,0 0.28,0 0.28,0.12c0,0.8 -2,2.4 -2.24,3.04c0,0.04 0.04,0.04 0.04,0.08c0,0.44 -0.96,0.96 -1.24,1.24c-2.04,1.76 -3.04,4.04 -4.36,5.28c-0.48,0.44 -1.32,0.52 -1.32,1.32c-0.4,0.28 -0.8,0.68 -0.92,1.2c-0.64,0.68 -2.24,1.84 -2.24,3.04ZM272.679,20.28c0,0.28 -0.52,0.4 -0.64,0.52c0,-0.04 0,-0.08 0,-0.08c0,-0.32 0.36,-0.44 0.64,-0.44ZM277.039,18.96c0.08,0 0.08,0.08 0.08,0.12c0,0.08 0,0.16 -0.08,0.16c-0.04,0 -0.08,-0.08 -0.08,-0.16c0,-0.04 0.04,-0.12 0.08,-0.12Z" style="fill:#000;fill-rule:nonzero;"/><path d="M293.119,25.92c0,1.32 1.84,1.72 2.92,2.12l3.04,0c0.76,-0.52 1.96,-0.36 2.88,-0.68c1.04,-0.32 2.72,-0.48 3.84,-1.04c0.56,-0.24 0.28,-0.4 1.04,-0.4c1,0 3.6,1.48 3.76,1.48l-0.04,-0.04l3.04,0c0.52,-0.24 0.64,-0.08 1.16,-0.24c1.68,-0.44 5.16,-2.4 5.16,-3.84c0,-0.4 -0.12,-0.4 -0.52,-0.4c-1.2,0 -1.6,0.92 -2.52,1.48c-0.8,0.52 -3.96,1.16 -4.88,1.16c-0.68,0 -1.04,-0.12 -1.84,-0.24c-0.16,-0.16 -0.28,-0.28 -0.4,-0.28c-0.4,0 -0.52,0.28 -0.68,0.52l-1.04,-0.4c0,-0.04 0,-0.08 0,-0.12c0,-0.68 1.04,-0.8 1.44,-0.8c0.92,-2.12 3.24,-2.92 4.64,-4.6c0.68,-0.8 0.92,-1.72 1.72,-2.52c-0.04,-0.04 -0.04,-0.08 -0.04,-0.16c0,-0.72 1.2,-1.28 1.2,-1.76c0,-0.32 0.96,-0.72 1.72,-0.72c0.84,-0.36 1.96,-1.92 2.92,-1.92c0.2,0 0.28,0.08 0.44,0.08c0.52,0 1.28,-1.08 1.8,-1.32c1.52,-0.48 1.76,-1.88 2.92,-2.64c0.68,0 1.04,-0.88 1.04,-1.2c0.32,-0.6 1.8,-1.32 1.8,-2.36c0,-0.12 -0.04,-0.28 -0.08,-0.4c0,-0.36 0.52,-0.44 0.52,-1.44c0,-1.12 -0.28,-2.2 -1.2,-2.64l-1.44,0c-0.28,0.64 -2.64,1.56 -3.16,1.84c-0.52,0.24 -0.68,0.64 -1.08,0.92c-0.52,0.4 -1.32,0.8 -1.84,1.2c-1.72,1.24 -3,2.72 -4.76,4.08c-0.36,0.4 -0.64,1.32 -0.92,1.56c-1.16,1.2 -1.72,1.6 -2.36,3.2c-0.92,0 -0.92,2.36 -1.6,2.76c-1.04,0 -2.48,0.28 -3.56,0.52c-0.12,0.28 -0.4,0.28 -0.64,0.28c-0.4,0 -0.92,-0.28 -1.96,-0.28c-3.04,0 -4.8,-1.28 -4.8,-5.16c0.56,-0.76 0.96,-1.68 1.08,-2.64c1.52,-1.64 3.6,-2.6 5.52,-3.8c1.04,-0.36 1.96,-0.08 2.8,-0.68c0.6,0 3.68,-0.36 3.68,-0.92c0,-0.4 -0.4,-1.2 -0.8,-1.2c-0.68,0 -1.64,0.2 -2.16,0.2c-0.28,0 -0.72,-0.2 -1,-0.2c-1.84,0 -7.52,2.8 -8.72,4.12c-1.44,1.56 -3.04,2.64 -3.04,5c0,2 0.96,4.88 2.92,5.8c0.12,0 1.2,0.4 1.32,0.4c0.96,0.28 1.92,0.68 3.04,0.68c1.52,0 4.76,-0.52 4.76,-0.56l-0.04,0c0.24,0 0.56,0.04 0.84,0.04c0,1.04 -4.88,4.88 -5.56,5.52l-0.12,0.28c-0.36,0 -0.48,-0.12 -1.32,-0.52c-0.16,0 -0.68,-0.28 -0.8,-0.28c-0.16,0 -0.56,0.12 -0.92,0.12c-0.72,-0.28 -1.76,-0.24 -2.8,-0.24c-0.24,0 -0.72,-0.32 -0.88,-0.32c-1.52,0 -3.08,0.72 -4.12,1.76c-0.4,0.4 -1.32,1.04 -1.32,1.84ZM294.959,25.68l0,-0.16l0.8,-0.8c0.32,-0.32 1.36,-0.4 2.44,-0.4c0.72,0 1.44,0.04 2.04,0.04c0.28,-0.16 0.4,-0.16 0.8,-0.16c0.28,0 2.12,0 2.12,0.52c0,0.32 -0.56,0.56 -1.2,0.56c-1.2,0.24 -1.96,0.92 -3.44,0.92c-0.24,0 -0.52,-0.28 -0.76,-0.28c-0.68,0 -1.48,0.28 -2.12,0.28c-0.4,0 -0.68,-0.16 -0.68,-0.52ZM317.679,12.48c0.64,-0.68 0.12,-0.4 0.64,-1.32c0,-0.16 0.56,-0.56 0.56,-0.68c0.92,-1.32 0.76,-2.36 2.64,-3.04l0,-0.52c0.48,-0.48 1.84,-2.2 3.16,-2.52l-0.28,-0.24c0.12,-0.28 3.32,-1.88 3.44,-1.88c0.12,0 0.28,0 0.28,0.28c0,0.12 -0.16,0.28 -0.16,0.52c0.24,0.28 0.28,0.64 0.28,0.72c0,0.96 -0.68,1.44 -0.92,2.2l-1.6,1.56c-0.64,0.28 -1.44,1.08 -1.84,1.32c-0.52,0.36 -1.6,0.92 -1.6,1.2c-0.4,0.52 -1.04,1.08 -1.72,1.44c-0.24,0.16 -2.36,1.2 -2.48,1.2c-0.28,0 -0.4,0 -0.4,-0.24Z" style="fill:#000;fill-rule:nonzero;"/><path d="M316.079,40.56l0.28,0l0,-0.16l-0.28,0.16ZM321.639,25.88c0.12,0.4 1.2,0.4 1.56,0.4c0.68,0 5.48,-2.76 5.48,-3.56c0,-0.12 -0.36,-0.2 -0.48,-0.2c-0.4,0 -3.16,1.24 -3.16,1.8c-0.12,0 -1.28,0.52 -1.44,0.52c-0.24,0 -0.4,-0.4 -0.4,-0.68c0,-0.48 1.44,-2.12 2,-2.76c0.4,-0.44 1.96,-2.48 1.96,-3.04c0,-0.52 -0.64,-0.8 -1.16,-0.8c-1.52,0 -1.88,1.72 -3.04,2.4c-0.44,0.88 -3,1.72 -3,3.16c0,0.12 0.2,0.24 0.32,0.24c0.4,-0.12 1.36,-0.88 1.6,-1.16l0.28,0.28c0,0.68 -0.92,0.92 -0.92,1.96c0,0.28 0.28,1.2 0.4,1.44ZM329.279,11.64c0,0.6 0.64,1.84 1.4,1.84c0.64,0 1.64,-1.2 1.64,-1.84c0,-1.04 -1.04,-1.32 -1.84,-1.32c-0.68,0 -1.2,0.8 -1.2,1.32Z" style="fill:#000;fill-rule:nonzero;"/><path d="M328.879,25.44c0,0.28 0.28,0.68 0.52,0.68l1.72,0c1.2,-1.08 1.56,-2.08 2.52,-2.92c0.12,-0.12 1.04,-0.76 1.2,-0.92c0.12,-0.92 1.44,-0.12 1.96,-1.04l0.12,0.12c0.04,0.12 0.04,0.2 0.04,0.32c0,0.96 -0.8,1.36 -0.8,2.6c0,1.72 1.16,1.84 2.76,1.84c0.64,0 4.68,-2.56 4.84,-3.2c0,-0.36 -0.16,-0.4 -0.36,-0.4c-0.92,0 -3.48,2 -4.6,2c-0.16,0 -0.16,-0.12 -0.16,-0.24c0,-0.28 0.28,-0.4 0.4,-0.68c0.28,-0.8 0.4,-1.16 0.4,-1.84c0,-0.64 -0.52,-1.44 -1.04,-1.84c1,-0.56 1.4,-0.48 2.36,-1.08c0.4,0.4 1.04,1.2 1.72,1.2l1.04,-0.8c0,-0.28 0.04,-0.52 0.04,-0.76c0,-1.4 -1.4,-1.24 -1.88,-1.32l-0.52,0.52l-1.6,0c-0.4,0.4 -1.96,1.72 -2.36,1.84c-0.04,-0.04 -0.12,-0.04 -0.16,-0.04c-0.24,0 -0.16,0.56 -0.52,0.56c-0.08,0 -0.48,0 -0.52,0c0.4,-1.04 1.6,-0.8 1.84,-2.24c0.76,-0.36 0.92,-1.52 1.88,-1.72c0.52,-0.48 0.6,-0.96 0.92,-1.44c0.24,-0.28 0.52,-0.28 0.64,-0.52c0.52,-0.68 0.92,-1.32 1.48,-2c0.64,-0.76 1.56,-1.04 1.96,-2.36c0.4,-0.52 1.6,-1.48 1.6,-2.4c0,-0.36 -0.4,-0.4 -0.72,-0.4c-2.28,0 -3.24,1.4 -4.44,2.92c-0.12,0.32 -0.56,0.44 -0.56,0.8c0,0.08 0,0.16 0.04,0.24c-0.44,0.64 -1.44,1.84 -2.4,2.8c-0.4,0.12 -2.08,2.24 -2.36,2.76c-0.08,0.4 -0.8,0.72 -1.32,1.04c-0.28,0.16 -0.28,0.56 -0.52,0.68c-1.08,0.8 -1.6,1.44 -2.64,2.24c-0.64,0.48 -3.44,1.6 -3.44,2.36c0,-0.04 -0.08,0.72 0.4,0.72c0.56,-0.24 2.88,-1.68 2.88,-1.84c0,-0.08 -0.04,-0.16 -0.04,-0.24c0,-0.08 0.4,-0.24 0.6,-0.32c0.32,-0.24 0.08,-0.4 0.52,-0.4c0.12,0 0.12,0.4 0.12,0.52c-0.2,0.8 -3.56,2.12 -3.56,4.2ZM332.559,20.32l0.16,0l0,0.12l-0.16,0l0,-0.12ZM333.519,19.24c0.08,0.08 0.12,0.12 0.12,0.28c-0.12,0.36 -0.48,0.52 -0.8,0.52c0.28,-0.24 0.4,-0.64 0.68,-0.8ZM339.719,15.56l0.24,0l-0.24,0.12l0,-0.12Z" style="fill:#000;fill-rule:nonzero;"/><path d="M345.279,25.04c0.44,0.56 1.2,1.32 2,1.32c1.88,0 6.52,-2.32 6.52,-3.48c0,-0.2 -0.08,-0.32 -0.36,-0.32c-0.32,0 -1.4,0.36 -2.08,1.2c-0.12,-0.08 -0.28,-0.16 -0.4,-0.16c-0.12,0.16 -1.04,0.8 -1.44,0.8l-0.28,-0.16c-0.12,0.16 -0.64,0.4 -0.8,0.56c-0.64,0 -1.32,-0.16 -1.32,-0.8c0,-2 3.72,-1.08 3.72,-2.52c0,-0.36 -0.28,-0.28 -0.52,-0.28c-0.68,0 -1.2,0.28 -1.72,0.28c-0.08,-0.12 -0.16,0 -0.16,-0.28c0,-0.36 2.24,-2.36 2.8,-2.36c0.24,0 0.4,0 0.64,0.12c-0.12,0 -0.12,0.16 -0.12,0.28l0.12,0c0,0.64 -0.4,0.92 -0.4,1.6c1.2,0 1.32,-0.84 1.72,-1.88c0,-0.2 -0.28,-0.24 -0.28,-0.48c0,-0.04 0,-0.08 0.04,-0.16c-0.56,-0.8 -1.2,-1.08 -2.12,-1.08c-0.16,0 -0.52,0.28 -0.68,0.4c-1.16,0.44 -1.88,0.4 -2.76,1.72c-0.08,-0.04 -0.16,-0.04 -0.24,-0.04c-0.92,0 -1.04,1.36 -2.4,1.36c0,0.4 -1.56,1.8 -1.84,2.08c0.16,0.24 0.28,0.52 0.68,0.52c0.12,0 1.04,-0.6 1.16,-0.76c0.12,0.12 0.56,1.88 0.56,2.4c0,0.04 -0.04,0.08 -0.04,0.12Z" style="fill:#000;fill-rule:nonzero;"/><path d="M361.519,23.24c0.12,0 0.16,0.2 0.16,0.4c0,0.2 -0.04,0.4 -0.04,0.52c0,0.16 0.68,0.56 0.68,0.68c0.24,0.4 0.52,1.04 0.92,1.32c0.12,0.12 1.2,0.52 1.32,0.64c0.52,0.28 0.92,0.68 1.6,0.68c0.24,0 0.64,-0.12 0.92,-0.12c0.12,0 0.4,0 0.4,0.12c0.24,-0.12 1.32,-0.4 1.56,-0.4c0.16,0 0.4,0 0.68,0.12c0.76,-0.12 1.84,-0.76 2.76,-0.92c0.84,-0.12 4,-1.84 4.48,-1.84c0.2,-1.12 1.92,-1.6 2.4,-1.6c0.12,0 2.48,2 2.88,2.12c0.6,0.44 2.16,0.52 2.4,0.92l0,0.28c0.44,0.56 1.2,0.8 1.84,0.8c0.64,0 1.32,-0.16 2.12,-0.16l0,-0.12l-0.16,0c0.4,-0.52 2.8,-1.44 3.44,-1.72c1,-0.44 2.36,-0.84 2.36,-1.84c0,-0.28 -0.36,-0.28 -0.64,-0.28c-1.24,0 -2,1.64 -2.84,1.64c-0.2,0 -0.32,-0.16 -0.72,-0.56c0,-0.4 1.2,-1.72 1.56,-2c-0.16,-0.12 -0.24,-0.28 -0.24,-0.36c0,-0.6 0.96,-0.84 1.2,-1.2c-0.08,-0.12 -0.16,-0.12 -0.16,-0.28c0.28,-0.4 1.08,-0.92 1.2,-1.44l-0.12,-0.28l0.24,-0.12c0.28,-0.28 1.32,-1.04 1.32,-1.2c-0.08,-0.16 -0.12,-0.2 -0.12,-0.4c0.6,-0.84 2.36,-3.08 2.6,-3.08c0.04,0 0.04,0 0.04,0.04c0,-1.44 0.36,-1 0.64,-1.56c0.28,-0.4 0.4,-0.8 0.68,-1.2c0.52,-0.52 0.88,-0.64 1.32,-1.32c0.36,-0.52 0.56,-1.32 1.04,-1.72c0.8,-0.64 1.48,-1.56 2.12,-2.48c1.08,-0.56 1.84,-2.64 3.04,-2.64c0,-0.16 -0.12,-0.28 -0.12,-0.4c0,-0.28 0.12,-0.4 0.12,-0.68c0,-0.4 -1.04,-0.52 -1.32,-0.52c-0.4,0 -2.68,1.96 -3.56,1.96l-0.12,0c-0.92,0.96 -1.32,0.96 -2.4,1.32c-1.16,0.56 -2.48,1.6 -3.44,2.52c-1.76,0 -4.32,3.32 -4.32,3.32c-0.48,0.44 -1.36,0.4 -1.48,1.16c-1.08,0.52 -1.04,1.32 -2.12,1.32c-0.6,-0.32 0.24,-1.4 -0.92,-1.44c-0.52,-0.4 -1.16,-1.84 -2.08,-1.84l-2.28,0c0,0.12 -0.24,0.12 -0.36,0.12c-0.28,0 -0.28,-0.4 -0.68,-0.4c-0.48,0 -2.76,1.16 -2.76,1.72l-1.2,1.2c0.04,0.08 0.08,0.16 0.08,0.2c0,0.36 -0.6,0.48 -0.6,0.84c-0.12,0.92 -0.28,1.72 -0.4,2.64c0,0.28 -0.4,0.68 -0.4,0.92c0,0.56 0.52,1.08 0.52,1.6l-0.12,0.12c0,0.92 1.32,1.84 1.32,3.16c0,0.96 -1.4,1.68 -1.92,1.68c-0.12,0 -0.16,-0.04 -0.2,-0.08c-1.64,1.2 -2,1.44 -2.88,1.44c-0.16,0 -0.68,0.4 -0.8,0.4c-0.8,0.32 -2,0.4 -2.64,0.4c-0.16,0 -0.52,0.28 -0.68,0.28c-0.72,0 -2.12,-0.04 -2.12,0.12c-0.64,0 -0.92,-0.92 -1.32,-0.92c-0.12,0 0,0.28 -0.24,0.28c-0.12,0 -0.8,-0.28 -0.8,-0.4c0,-1.2 2.76,-0.56 2.76,-1.88c0,-1.16 -0.12,-1.68 -0.92,-2.64c-0.12,-0.12 -0.92,-0.36 -1.16,-0.52c-1.48,0 -3.32,2.24 -3.32,3.56ZM389.639,25.64c0,0.24 -0.12,0.24 -0.4,0.24c0,-0.24 0.12,-0.24 0.4,-0.24ZM363.879,24.04l0,0.28l-0.12,0l0.12,-0.28ZM381.599,22.84l-0.28,0.28c-0.28,0 -0.8,-0.52 -0.8,-0.8c0,-1.44 0.8,-1.44 1.72,-1.96c0.28,-0.16 0.28,-0.52 0.52,-0.68c0.44,-0.2 1.16,-0.32 1.32,-0.92c0,0.12 0.28,0.12 0.4,0.12c0,0 0.28,0 0.28,-0.12l-0.4,-0.12l0,-0.12l1.32,-1.32c0,-0.36 1.4,-1.72 1.84,-1.72c0.4,0 0.52,0.92 0.52,1.16l0,0.16c0,0.24 -0.12,1.32 -0.12,1.56c-0.12,0 -0.52,1.08 -0.52,1.2c0.12,0.32 0.12,0.52 0.12,0.92c0,0.76 -0.6,0.76 -0.8,1.72c-1,0.68 -0.44,2.12 -2.24,2.12c-0.64,-0.8 -2.04,-1 -2.88,-1.48ZM363.639,23.92l0.12,0l-0.12,0.12l0,-0.12ZM378.559,22.72c0.08,0 0.08,0.08 0.08,0.12c0,0.08 0,0.16 -0.08,0.16c-0.08,0 -0.12,-0.08 -0.12,-0.16c0,-0.04 0.04,-0.12 0.12,-0.12ZM379.479,20.6l0,0.16l-0.12,0l0.12,-0.16ZM378.279,19.44c0,-0.52 0,-1.08 -0.12,-1.2c0,-1.12 0.24,-2.52 0.8,-2.76c-0.16,0 -0.28,-0.16 -0.28,-0.28l0.28,0c0,-0.76 0.64,-0.68 0.64,-1.6c0.4,-1.32 1.84,-2.36 3.32,-2.36c0,0.12 0,0.28 0.24,0.28l0.16,-0.16c2,0 2.88,0.64 3.56,2.64c-0.6,1.16 -0.04,1.2 -0.92,1.2c-1.08,0.12 -1.88,1.6 -2.4,2.36c0,-0.12 -0.12,-0.12 -0.24,-0.12c-0.16,0.36 -0.4,0.48 -0.8,0.52c-0.4,0.28 -0.8,1.08 -1.2,1.32c-0.64,0.28 -0.52,1.08 -1.44,1.08l-0.28,-0.16c-0.12,0 -0.4,0.16 -0.52,0.16c-0.12,-0.52 -0.28,-0.8 -0.8,-0.92ZM388.719,15.6c0,-1.28 0.8,-1.8 1.2,-2.76c0.12,-0.28 0.52,-0.16 0.64,-0.28c0.4,-0.4 0.12,-0.68 0.8,-1.2c0.6,-0.44 1.48,-0.92 2.12,-1.16c0.6,-0.24 0.36,-0.88 1.04,-1.08c0.92,-0.4 1.6,-1.56 2.36,-1.84c0.2,0.08 0.4,0.12 0.56,0.12c0.64,0 0.4,-0.64 0.92,-1.04l0.12,0.12c0.28,-0.4 2.92,-1.96 3.32,-1.96c0,0.2 0.04,0.32 0.12,0.52c-0.28,0.52 -1.2,0.64 -1.6,0.92c-0.52,0.28 -0.52,0.68 -0.8,1.04c-0.12,0.28 -2.08,1.96 -2.08,2.36l0,0.04c-0.8,0.92 -1.72,1.56 -2.52,2.52c-0.4,0.48 -0.36,1.16 -0.68,1.84c-0.52,1.16 -1.92,1.76 -2.48,3.04l-0.4,-0.16c0.04,0.08 0.04,0.16 0.04,0.24c0,0.92 -1.12,1.24 -1.24,1.48c0,0.04 0.04,0.16 0.04,0.24c0,0.16 -0.04,0.28 -0.28,0.28c-1.08,0 -1.2,-1.28 -1.2,-2.36c0,-0.36 0,-0.68 0,-0.92ZM395.199,14c0.08,0 0.08,0.08 0.08,0.12c0,0.08 0,0.16 -0.08,0.16c-0.08,0 -0.12,-0.08 -0.12,-0.16c0,-0.04 0.04,-0.12 0.12,-0.12ZM397.559,7.16c0,0.04 -0.04,0.08 -0.04,0.08c-0.04,0 -0.08,-0.04 -0.08,-0.08c0,-0.08 0.04,-0.12 0.08,-0.12c0,0 0.04,0.04 0.04,0.12ZM397.159,7c0,0.08 -0.04,0.12 -0.04,0.12c-0.04,0 -0.08,-0.04 -0.08,-0.12c0,-0.08 0.04,-0.08 0.08,-0.08c0,0 0.04,0 0.04,0.08ZM402.439,4c0,0.04 -0.04,0.08 -0.04,0.08c-0.04,0 -0.08,-0.04 -0.08,-0.08c0,-0.08 0.04,-0.12 0.08,-0.12c0,0 0.04,0.04 0.04,0.12ZM402.839,3.6c0,0.12 0,0.12 -0.12,0.12c-0.04,0 -0.04,0 -0.04,-0.04c0,-0.04 0.08,-0.12 0.12,-0.12c0.04,0 0.04,0 0.04,0.04Z" style="fill:#000;fill-rule:nonzero;"/><path d="M404.199,26.6c0,0.24 1.96,1.04 2.24,1.04c0.04,0 0.08,0 0.16,0c0.36,0 1.2,-0.08 1.2,-0.24l-0.04,-0.04c0.48,0 0.92,0.2 1.36,0.2c0,0 0.96,-0.32 1.4,-0.32l0.4,0.12c0.52,0 5.56,-1.84 5.68,-2.36c1.08,-0.52 1.32,-0.68 2.12,-1.32c0.28,-0.28 0.64,-0.12 0.92,-0.28c0.8,-0.4 2.52,-2.92 2.76,-2.92l0,0.04c0.8,-1.08 1.36,-2.16 2.64,-3.04c0.28,-0.28 0.8,-2.92 0.8,-3.04l0.4,0l-0.12,0.28l0.4,0.12c0.16,-0.2 0.12,-0.28 0.52,-0.28c0,0.32 -0.12,0.08 -0.12,0.4c0.52,0.92 1.68,0.68 1.68,1.32c0,0.24 -0.68,2.68 -0.76,2.68c-0.04,0 -0.08,-0.04 -0.16,-0.16c-0.24,0 -0.12,0.8 -0.24,0.92c-0.16,0.44 -0.72,0.96 -0.72,1.24c0,0 0.12,0.24 0.2,0.36c0,0.64 -0.56,1.32 -0.56,1.96c0,2.84 1.92,3.68 2.48,3.68c0.16,0 0.6,0.04 1.12,0.04c2.12,0 2.84,-1.2 3.48,-1.2c0.12,0 0.2,0.04 0.32,0.12c1.08,-0.28 2.44,-2.44 2.44,-2.8c0,-0.32 -0.84,-0.36 -0.84,-0.36c-0.88,0 -1.44,0.96 -2.04,0.96c-0.04,0 -0.12,0 -0.2,-0.04c-1.48,0.4 -2.12,1.04 -3.72,1.04l0,-0.4l-0.24,0c0,-0.92 0.24,-1.84 0.64,-2.64c0.12,-0.36 0.8,-0.92 0.8,-1.32c0,-0.36 -0.24,-0.24 -0.4,-0.52c0.16,-0.16 0.28,-0.44 0.28,-0.52l-0.16,-0.12l0.28,-0.28c0,-0.28 0.04,-0.72 0.04,-1.12c0,-0.76 -0.08,-1.52 -0.44,-1.52c0,-1.44 0.12,-0.8 1.2,-1.32c0.4,-0.24 0.64,-0.52 1.04,-0.8c0.68,-0.4 0.92,0 1.2,-0.52c0.24,-0.4 0.92,-0.4 1.32,-0.8c0.68,-0.68 1.16,-1.84 1.44,-2.64l-0.12,-0.24c0,-0.68 0.4,-1.32 0.4,-2c0,-1.12 -0.92,-2.8 -0.92,-3.96c0,-0.64 2.08,-0.8 2.08,-2.24c0,-0.4 -0.64,-0.64 -1.04,-0.64c-0.64,0 -1.44,0.76 -2.12,1.04l-0.12,-0.12c-0.2,0.08 -0.2,0.12 -0.52,0.12c-0.28,0 -3.04,-1.2 -3.44,-1.44c-0.12,-0.16 -0.52,-0.28 -0.52,-0.28c-0.28,0.12 -0.12,0.12 -0.92,0.12l-0.16,-0.12l-0.24,0.12l-0.28,-0.24c-0.16,0 -0.44,0.28 -0.68,0.28c-0.8,0 -1.52,-0.4 -2.2,-0.4c-0.44,0 -0.84,0.12 -1.48,0.12c-0.16,0 -0.32,0 -0.52,-0.12l-0.4,0.12l-0.4,-0.12c-1.32,0 -2.48,1.04 -3.8,1.04c-0.16,0 -0.16,-0.12 -0.4,-0.12c-0.04,0.8 -1.24,0.28 -2.12,0.92c-0.52,0.24 -1.08,0.88 -1.6,1.16c-1.72,0.92 -2.64,1.6 -3.96,2.92c-2.72,2.72 -2,1.88 -2.88,3.04c-0.56,0.92 -0.92,1.72 -1.2,2.76c-0.44,0.16 -0.72,1.8 -0.72,1.92c0,0.12 0.32,0.12 0.44,0.2c0.16,0.28 0,0.8 0.56,1.44c0.12,0.16 0.92,0.92 1.04,1.08c0.12,1.24 0.72,1.16 2.12,1.16l0.24,-0.12c0.72,0 1.6,0.4 2.24,0.4c0.2,-0.2 1,-0.64 1.72,-0.64c0.52,-0.24 0.44,-1.12 1.08,-1.12c0.08,0 0.16,0 0.24,0.04l0.68,-0.64c1.04,0 4.8,-2.92 5.52,-3.84c0.56,-0.52 0.68,-1.64 1.48,-2c0.64,-0.28 2.24,-4.68 2.48,-4.72c-0.12,-0.56 -0.24,-1.32 -0.92,-1.32c-1.04,0 -1.16,1.56 -1.32,2.24c-0.12,0.4 -0.64,0.52 -0.64,0.52c-0.4,0.4 -0.4,1.32 -0.8,1.72c-0.28,0.4 -0.64,0.52 -0.92,0.8c-0.12,0.12 -0.52,0.52 -0.68,0.64c-0.36,0.4 -1.28,0.4 -1.68,0.8c-0.64,0.64 -1.52,1.2 -2.28,2.24c-0.36,-0.24 -2.64,1.72 -2.72,1.72c-1.2,0 -2.24,0.8 -3.48,0.92c0,-0.08 -0.36,-0.28 -0.92,-0.28c-0.12,0 -0.52,0.28 -0.64,0.28l0,-0.52c-0.16,-0.12 -0.92,-0.68 -1.08,-0.8l-0.12,-0.12c0.28,-0.16 0.28,-0.28 0.28,-0.4c0,-0.28 -0.16,-0.28 -0.4,-0.28c0.4,-0.64 0.8,-1.84 1.04,-2.36c0.4,-0.8 1.08,-1.44 1.6,-2.12c0.56,-0.72 1.56,-1.08 1.84,-1.96c0.04,0 0.04,0.04 0.08,0.04c0.32,0 1.12,-1.12 1.52,-1.12l0.12,0.12c0.4,0 0.8,-0.52 1.04,-0.64c0.28,-0.2 1.64,-0.08 1.64,-0.84c0,-0.08 0,-0.12 -0.04,-0.2c0,0 1.96,-0.28 2.24,-0.4c0.28,0 0.12,-0.56 0.52,-0.56l0.12,0.16c0.24,-0.2 0.6,-0.2 0.68,-0.28c0.12,0 0.12,0.28 0.12,0.28c0,-0.48 1.56,-0.92 2.52,-0.92l-0.28,-0.16c0.4,-0.12 0.8,-0.12 1.2,-0.12c0.68,0 0.8,0.28 1.2,0.28c0.4,0 1.04,-0.4 1.44,-0.56l0,0.16c0.16,0 0.2,-0.16 0.4,-0.16l0,0.04c0,0.12 1.16,0.24 1.6,0.24l0.24,0l0,0.28c0.04,0 0.04,0.04 0.08,0.04c0.08,0 0.12,-0.24 0.2,-0.32c0.52,0 0.4,0.52 1.04,0.52c0.12,-0.08 0.28,-0.12 0.4,-0.12c0.36,0.12 0.44,0.48 0.84,0.48c0.12,0 0.24,-0.04 0.36,-0.08c0.4,0 0.52,0.64 0.92,0.64c0,0.56 -0.68,1.08 -1.2,1.32c-1.28,0.64 -0.64,1.6 -2.12,1.6l-1.96,1.96c-0.12,0 -1.84,1.6 -1.84,1.72c0,1.08 -1.32,1.12 -1.32,2.4c-1.16,0.92 -1.12,1.16 -1.88,2.12c-0.84,1.08 -1.44,1.4 -1.44,2.88c-1.52,0.36 -1.68,2.88 -3.04,3.16c0,0.04 0.04,0.04 0.04,0.08c0,0.56 -1.56,1.44 -1.6,1.4c-0.08,-0.08 -0.24,-0.2 -0.32,-0.2c-0.04,0 -0.04,0 -0.08,0.04l0,0.28c-0.32,0 -1.6,1.32 -1.84,1.44c-0.56,0.28 -1.32,0.52 -1.72,1.08l-0.16,-0.16c-0.64,0 -1.16,0.68 -1.72,0.8c-0.44,0.08 -1.96,0.12 -1.96,0.44c0,0.08 0,0.16 -0.12,0.24c0,-0.16 -0.28,-0.4 -0.4,-0.4c-0.12,0.08 -0.28,0.12 -0.4,0.12c-0.12,0 -0.68,-0.64 -0.92,-0.64c-0.16,0 -0.52,0.24 -0.68,0.24l-0.12,0c0.4,-0.4 0,-1.2 0.4,-1.56c0.24,-0.28 0.8,-0.4 0.8,-0.96c0,-1.64 -1.04,-1.88 -1.2,-2.64c-0.2,0.16 -0.56,0.2 -0.68,0.28c-1.56,0.28 -1.44,0.68 -2.08,2c-0.16,0.24 -0.28,0.36 -0.28,0.64c0,0.4 0.28,0.52 0.4,0.92c0.4,1.08 0.52,1.32 1.44,2.12c-0.08,0.12 -0.12,0 -0.12,0.28ZM404.839,24.6c0.24,-0.16 0.36,-0.12 0.56,-0.12l-0.16,0.4c-0.12,0 -0.28,-0.16 -0.4,-0.28ZM405.639,23.96c0.08,0 0.12,0.04 0.12,0.12c0,0.04 -0.04,0.12 -0.12,0.12c-0.04,0 -0.08,-0.08 -0.08,-0.12c0,-0.08 0.04,-0.12 0.08,-0.12ZM419.759,23c0,0.08 -0.04,0.12 -0.04,0.12c-0.04,0 -0.08,-0.04 -0.08,-0.12c0,-0.08 0.04,-0.08 0.08,-0.08c0,0 0.04,0 0.04,0.08ZM426.919,12.84c0,-0.12 0.64,0 0.64,-0.64l-0.12,-0.12c0.4,-0.68 0.64,-0.8 1.16,-1.32c0.72,-0.72 0.64,-2 1.88,-2.52l0.12,-0.4c0,-0.28 1.32,-1.72 1.44,-1.72l1.48,-1.44l0.36,0l0,0.64l0.28,0c0,0.28 0.28,0.8 0.4,0.92c0,0.16 0,1.6 -0.4,1.72c0.12,0 0.28,0.16 0.28,0.28c0,0.24 -1.48,2.36 -1.72,2.64c-0.6,0.8 -1.68,1.04 -2,2.24c0,0.12 -1.72,0.92 -1.84,0.92c-0.12,0 -1.96,-0.8 -1.96,-1.2ZM426.759,13.64c0,-0.12 0.16,-0.12 0.28,-0.12l0,0.24c-0.12,0 -0.28,0 -0.28,-0.12ZM426.639,13.24c0.08,0 0.08,0.04 0.08,0.08c0,0.04 0,0.08 -0.08,0.08c-0.04,0 -0.08,-0.04 -0.08,-0.08c0,-0.04 0.04,-0.08 0.08,-0.08ZM416.199,4.4c0,0.04 -0.04,0.08 -0.04,0.08c-0.04,0 -0.08,-0.04 -0.08,-0.08c0,-0.08 0.04,-0.08 0.08,-0.08c0,0 0.04,0 0.04,0.08ZM434.559,2.44c0,0.04 -0.04,0.08 -0.04,0.08c-0.04,0 -0.08,-0.04 -0.08,-0.08c0,-0.08 0.04,-0.12 0.08,-0.12c0,0 0.04,0.04 0.04,0.12ZM430.199,2.16c0.08,0 0.08,0.08 0.08,0.12c0,0.08 0,0.16 -0.08,0.16c-0.04,0 -0.08,-0.08 -0.08,-0.16c0,-0.04 0.04,-0.12 0.08,-0.12Z" style="fill:#000;fill-rule:nonzero;"/><path d="M431.399,40.56l0.28,0l0,-0.16l-0.28,0.16ZM436.959,25.88c0.12,0.4 1.2,0.4 1.56,0.4c0.68,0 5.48,-2.76 5.48,-3.56c0,-0.12 -0.36,-0.2 -0.48,-0.2c-0.4,0 -3.16,1.24 -3.16,1.8c-0.12,0 -1.28,0.52 -1.44,0.52c-0.24,0 -0.4,-0.4 -0.4,-0.68c0,-0.48 1.44,-2.12 2,-2.76c0.4,-0.44 1.96,-2.48 1.96,-3.04c0,-0.52 -0.64,-0.8 -1.16,-0.8c-1.52,0 -1.88,1.72 -3.04,2.4c-0.44,0.88 -3,1.72 -3,3.16c0,0.12 0.2,0.24 0.32,0.24c0.4,-0.12 1.36,-0.88 1.6,-1.16l0.28,0.28c0,0.68 -0.92,0.92 -0.92,1.96c0,0.28 0.28,1.2 0.4,1.44ZM444.599,11.64c0,0.6 0.64,1.84 1.4,1.84c0.64,0 1.64,-1.2 1.64,-1.84c0,-1.04 -1.04,-1.32 -1.84,-1.32c-0.68,0 -1.2,0.8 -1.2,1.32Z" style="fill:#000;fill-rule:nonzero;"/><path d="M446.479,24.2c0,1.32 1.44,2.24 2.76,2.24c1.72,0 2.36,-2.24 4.08,-2.24c0.56,0 0.92,0.24 1.48,0.24c0.64,0 2.48,-0.76 2.48,-1.56c0,-0.4 -0.52,-0.52 -0.92,-0.52c-0.64,0 -0.8,0.76 -1.44,0.76c-0.28,0 -0.52,0 -0.52,-0.24c0,-0.56 2.48,-2.12 2.48,-3.84c0,-1.04 -0.52,-2.12 -1.56,-2.12c-1.16,0 -2.56,1.48 -3.04,2.4c-0.72,1.4 0.16,4.6 -2.12,4.6c-0.52,0 -0.8,-0.12 -0.8,-0.64c0.88,-1.12 2.24,-2.72 2.24,-4.12c0,-1.24 -0.8,-2.24 -1.84,-2.24c-1.44,0 -1.56,0.92 -2.48,1.6c-0.84,0.64 -2.12,1.28 -2.12,1.44c-0.16,0.16 -2.36,3.08 -2.36,3.08c0,0.4 0.28,0.4 0.52,0.4c1.52,0 3.72,-4.28 5.52,-4.28c-0.24,0.84 -1.12,1.12 -1.2,2c-0.52,1.04 -1.16,1.72 -1.16,3.04ZM453.079,21.56c0,-1.16 1,-2.16 1.32,-2.52l0.64,0c0,1 -1,1.12 -1.16,2.24c0,0.16 -0.36,0.72 -0.52,0.72c-0.28,0 -0.28,-0.2 -0.28,-0.44Z" style="fill:#000;fill-rule:nonzero;"/><path d="M458.559,25.04c0.44,0.56 1.2,1.32 2,1.32c1.88,0 6.52,-2.32 6.52,-3.48c0,-0.2 -0.08,-0.32 -0.36,-0.32c-0.32,0 -1.4,0.36 -2.08,1.2c-0.12,-0.08 -0.28,-0.16 -0.4,-0.16c-0.12,0.16 -1.04,0.8 -1.44,0.8l-0.28,-0.16c-0.12,0.16 -0.64,0.4 -0.8,0.56c-0.64,0 -1.32,-0.16 -1.32,-0.8c0,-2 3.72,-1.08 3.72,-2.52c0,-0.36 -0.28,-0.28 -0.52,-0.28c-0.68,0 -1.2,0.28 -1.72,0.28c-0.08,-0.12 -0.16,0 -0.16,-0.28c0,-0.36 2.24,-2.36 2.8,-2.36c0.24,0 0.4,0 0.64,0.12c-0.12,0 -0.12,0.16 -0.12,0.28l0.12,0c0,0.64 -0.4,0.92 -0.4,1.6c1.2,0 1.32,-0.84 1.72,-1.88c0,-0.2 -0.28,-0.24 -0.28,-0.48c0,-0.04 0,-0.08 0.04,-0.16c-0.56,-0.8 -1.2,-1.08 -2.12,-1.08c-0.16,0 -0.52,0.28 -0.68,0.4c-1.16,0.44 -1.88,0.4 -2.76,1.72c-0.08,-0.04 -0.16,-0.04 -0.24,-0.04c-0.92,0 -1.04,1.36 -2.4,1.36c0,0.4 -1.56,1.8 -1.84,2.08c0.16,0.24 0.28,0.52 0.68,0.52c0.12,0 1.04,-0.6 1.16,-0.76c0.12,0.12 0.56,1.88 0.56,2.4c0,0.04 -0.04,0.08 -0.04,0.12Z" style="fill:#000;fill-rule:nonzero;"/><path d="M478.359,22.68c-0.04,-0.12 -0.2,-0.16 -0.44,-0.16c-0.68,0 -1.88,0.32 -2.28,0.32c-0.24,0 -0.4,0 -0.4,-0.28c0,-1.2 3.16,-2.68 3.16,-3.56c0,-0.8 -0.64,-1.32 -1.44,-1.32c-1.56,0 -1.56,1.32 -2.76,2.24c-0.4,0 -0.12,-1.96 -2.12,-1.96c-1.48,0 -4.68,2.48 -5,3.72c-0.36,0.56 -1.04,0.8 -1.04,1.6l0.36,0c1.36,0 3.56,-4.28 5.28,-4.28c0.28,0 0.28,0.12 0.28,0.28c0,1.04 -0.92,2.12 -1.48,2.88c-0.12,0.16 -0.36,0.16 -0.52,0.4c-0.12,0.28 0,0.68 -0.24,0.92c0,0.36 -1.32,1.32 -1.32,1.6c0,0.68 0.72,1.2 1.32,1.2c1.72,0 3.4,-3.56 4.08,-3.56c0.2,0 0.24,0.12 0.24,0.28l0,0.16c0,0.6 1.44,1.12 2,1.12c0.84,0 2.44,-0.72 2.44,-1.4c0,-0.16 -0.12,-0.2 -0.12,-0.2Z" style="fill:#000;fill-rule:nonzero;"/><path d="M10.877,27.358l-6.844,-11.119l-0.072,0l0.096,11.119l-3.987,0l0,-17.002l4.683,0l6.82,11.094l0.072,0l-0.096,-11.094l3.987,0l0,17.002l-4.659,0Z" style="fill:#8e181b;fill-rule:nonzero;"/><rect x="19.042" y="10.356" width="4.13" height="17.002" style="fill:#8e181b;fill-rule:nonzero;"/><path d="M41.639,25.004c-0.752,0.865 -1.681,1.549 -2.785,2.054c-1.105,0.504 -2.378,0.756 -3.819,0.756c-1.313,0 -2.525,-0.216 -3.638,-0.648c-1.113,-0.433 -2.077,-1.045 -2.894,-1.837c-0.816,-0.793 -1.457,-1.742 -1.921,-2.846c-0.464,-1.105 -0.696,-2.322 -0.696,-3.65c0,-1.361 0.236,-2.594 0.708,-3.699c0.472,-1.104 1.125,-2.045 1.957,-2.821c0.833,-0.777 1.809,-1.373 2.93,-1.789c1.121,-0.417 2.33,-0.625 3.626,-0.625c1.201,0 2.382,0.212 3.542,0.637c1.161,0.424 2.102,1.044 2.822,1.861l-2.786,2.785c-0.384,-0.528 -0.888,-0.92 -1.512,-1.176c-0.625,-0.256 -1.265,-0.385 -1.922,-0.385c-0.72,0 -1.38,0.133 -1.981,0.397c-0.6,0.264 -1.116,0.628 -1.549,1.092c-0.432,0.465 -0.768,1.013 -1.008,1.645c-0.24,0.633 -0.361,1.325 -0.361,2.078c0,0.768 0.121,1.472 0.361,2.113c0.24,0.64 0.572,1.189 0.996,1.645c0.425,0.456 0.933,0.812 1.525,1.069c0.593,0.256 1.241,0.384 1.945,0.384c0.817,0 1.529,-0.16 2.138,-0.481c0.608,-0.32 1.096,-0.736 1.465,-1.248l2.857,2.689Z" style="fill:#8e181b;fill-rule:nonzero;"/><path d="M53.791,27.358l-6.316,-7.829l-0.048,0l0,7.829l-4.035,0l0,-17.002l4.035,0l0,6.916l0.072,0l6.075,-6.916l5.139,0l-7.324,7.828l7.757,9.174l-5.355,0Z" style="fill:#8e181b;fill-rule:nonzero;"/><path d="M79.078,15.591c0,0.992 -0.184,1.829 -0.553,2.509c-0.368,0.681 -0.864,1.229 -1.489,1.645c-0.624,0.416 -1.344,0.721 -2.161,0.913c-0.816,0.192 -1.665,0.288 -2.545,0.288l-2.042,0l0,6.412l-4.106,0l0,-17.002l6.244,0c0.928,0 1.797,0.092 2.605,0.276c0.809,0.184 1.513,0.48 2.114,0.888c0.6,0.408 1.072,0.945 1.416,1.609c0.345,0.665 0.517,1.485 0.517,2.462ZM74.971,15.615c0,-0.401 -0.08,-0.729 -0.24,-0.985c-0.16,-0.256 -0.376,-0.456 -0.648,-0.6c-0.272,-0.144 -0.581,-0.24 -0.925,-0.288c-0.344,-0.048 -0.7,-0.072 -1.069,-0.072l-1.801,0l0,4.01l1.729,0c0.385,0 0.753,-0.032 1.105,-0.096c0.352,-0.064 0.668,-0.176 0.949,-0.336c0.28,-0.16 0.5,-0.373 0.66,-0.637c0.16,-0.264 0.24,-0.596 0.24,-0.996Z" style="fill:#8e181b;fill-rule:nonzero;"/><path d="M91.637,27.358l-1.321,-3.338l-6.58,0l-1.248,3.338l-4.467,0l7.132,-17.002l3.987,0l7.06,17.002l-4.563,0ZM87.074,14.894l-2.161,5.836l4.275,0l-2.114,-5.836Z" style="fill:#8e181b;fill-rule:nonzero;"/><path d="M104.437,20.153l0,7.205l-4.107,0l0,-7.205l-6.387,-9.797l4.971,0l3.626,6.291l3.626,-6.291l4.803,0l-6.532,9.797Z" style="fill:#8e181b;fill-rule:nonzero;"/><path d="M123.048,27.358l-6.844,-11.119l-0.072,0l0.096,11.119l-3.986,0l0,-17.002l4.682,0l6.82,11.094l0.072,0l-0.096,-11.094l3.987,0l0,17.002l-4.659,0Z" style="fill:#8e181b;fill-rule:nonzero;"/><path d="M131.213,27.358l0,-17.002l11.431,0l0,3.482l-7.469,0l0,3.194l7.061,0l0,3.29l-7.061,0l0,3.53l7.901,0l0,3.506l-11.863,0Z" style="fill:#8e181b;fill-rule:nonzero;"/></g></svg>